<?xml version="1.0" encoding="UTF-8"?>
<svg version="1.1" xmlns="http://www.w3.org/2000/svg" width="224" height="225">
<path d="M0 0 C13.78336572 12.49541188 23.62969014 28.89771653 28 47 C28.33644531 48.32064453 28.33644531 48.32064453 28.6796875 49.66796875 C33.82699463 74.10004983 28.95232682 100.46724327 16.3125 121.85546875 C6.77987366 136.08820947 -5.89681962 147.94350698 -21 156 C-21.66 156 -22.32 156 -23 156 C-23.33 156.66 -23.66 157.32 -24 158 C-29.56838303 160.14920047 -35.28670691 161.64898637 -41.0625 163.125 C-41.72258057 163.29563965 -42.38266113 163.4662793 -43.06274414 163.64208984 C-64.84728299 169.06193427 -87.98708866 166.00645567 -108 156 C-118.79863144 156.32043417 -129.05297362 159.89611298 -139.36401367 162.85791016 C-141.82999483 163.56301959 -144.2994554 164.25470899 -146.76953125 164.9453125 C-147.52168411 165.16607452 -148.27383698 165.38683655 -149.04878235 165.61428833 C-153.04338289 166.72591481 -156.00080562 167.26569855 -160 166 C-159.39597615 158.57782816 -157.3049569 151.78603349 -155.125 144.6875 C-153.74107288 140.12763755 -152.36698407 135.56496812 -151 131 C-150.68256836 129.96697754 -150.36513672 128.93395508 -150.03808594 127.86962891 C-149.75481445 126.90847168 -149.47154297 125.94731445 -149.1796875 124.95703125 C-148.92687012 124.11760986 -148.67405273 123.27818848 -148.41357422 122.41333008 C-147.47003756 116.90750963 -150.0887711 112.42470353 -152.375 107.5625 C-155.71542144 100.19881323 -157.73727068 93.01075483 -159 85 C-159.13019531 84.21496094 -159.26039063 83.42992188 -159.39453125 82.62109375 C-159.7000244 80.40932338 -159.87471618 78.22931501 -160 76 C-160.09667969 74.53626953 -160.09667969 74.53626953 -160.1953125 73.04296875 C-161.06728529 48.07548114 -151.32155872 24.21604597 -134.75 5.75 C-98.79854414 -32.44058177 -39.12712773 -34.06435242 0 0 Z " fill="#3DC14E" transform="translate(176,40)"/>
<path d="M0 0 C13.78336572 12.49541188 23.62969014 28.89771653 28 47 C28.33644531 48.32064453 28.33644531 48.32064453 28.6796875 49.66796875 C33.82699463 74.10004983 28.95232682 100.46724327 16.3125 121.85546875 C6.77987366 136.08820947 -5.89681962 147.94350698 -21 156 C-21.66 156 -22.32 156 -23 156 C-23.33 156.66 -23.66 157.32 -24 158 C-29.56838303 160.14920047 -35.28670691 161.64898637 -41.0625 163.125 C-41.72258057 163.29563965 -42.38266113 163.4662793 -43.06274414 163.64208984 C-64.84728299 169.06193427 -87.98708866 166.00645567 -108 156 C-118.79863144 156.32043417 -129.05297362 159.89611298 -139.36401367 162.85791016 C-141.82999483 163.56301959 -144.2994554 164.25470899 -146.76953125 164.9453125 C-147.52168411 165.16607452 -148.27383698 165.38683655 -149.04878235 165.61428833 C-153.04338289 166.72591481 -156.00080562 167.26569855 -160 166 C-159.39597615 158.57782816 -157.3049569 151.78603349 -155.125 144.6875 C-153.74107288 140.12763755 -152.36698407 135.56496812 -151 131 C-150.68256836 129.96697754 -150.36513672 128.93395508 -150.03808594 127.86962891 C-149.75481445 126.90847168 -149.47154297 125.94731445 -149.1796875 124.95703125 C-148.92687012 124.11760986 -148.67405273 123.27818848 -148.41357422 122.41333008 C-147.47003756 116.90750963 -150.0887711 112.42470353 -152.375 107.5625 C-155.71542144 100.19881323 -157.73727068 93.01075483 -159 85 C-159.13019531 84.21496094 -159.26039063 83.42992188 -159.39453125 82.62109375 C-159.7000244 80.40932338 -159.87471618 78.22931501 -160 76 C-160.09667969 74.53626953 -160.09667969 74.53626953 -160.1953125 73.04296875 C-161.06728529 48.07548114 -151.32155872 24.21604597 -134.75 5.75 C-98.79854414 -32.44058177 -39.12712773 -34.06435242 0 0 Z M-92 -3 C-92.63019043 -2.73687012 -93.26038086 -2.47374023 -93.90966797 -2.20263672 C-115.85051879 7.15067653 -129.82209262 23.5939493 -139.38671875 45.12109375 C-145.12071512 61.23664144 -143.96591176 82.14538519 -138 98 C-137.49726563 99.43859375 -137.49726563 99.43859375 -136.984375 100.90625 C-135.55130192 104.7732726 -134.15526312 107.79018497 -131.6875 111.125 C-129.1480776 115.45142335 -130.36354478 119.51490001 -131.55786133 124.17822266 C-132.19709653 126.37896534 -132.86989705 128.56548761 -133.5625 130.75 C-134.88330491 134.93436819 -136 138.55395367 -136 143 C-129.7542265 142.3370408 -123.95171688 141.05621618 -117.91210938 139.37304688 C-110.14970575 137.31363367 -105.30235496 137.38820571 -98.25 141.3125 C-82.46848032 149.72790582 -62.3299544 151.86822644 -45 147 C-30.44496038 142.49395092 -18.9391497 135.73826381 -8 125 C-7.30003906 124.32453125 -6.60007813 123.6490625 -5.87890625 122.953125 C9.74301624 106.75261279 13.46475382 85.60954167 13.203125 63.93359375 C12.70188186 44.34537875 2.74883969 26.62876249 -11 13 C-18.24732223 6.51802505 -25.86774375 1.4625921 -35 -2 C-35.96292969 -2.37898438 -36.92585938 -2.75796875 -37.91796875 -3.1484375 C-54.2150062 -9.35054892 -75.82758274 -9.93665042 -92 -3 Z " fill="#F9FAF9" transform="translate(176,40)"/>
<path d="M0 0 C1.31291016 -0.03867188 1.31291016 -0.03867188 2.65234375 -0.078125 C5.60883535 0.32437953 6.16514163 1.00974554 8.0625 3.25 C9.70632256 6.27201398 10.9798524 9.4552025 12.3125 12.625 C12.68890625 13.47578125 13.0653125 14.3265625 13.453125 15.203125 C13.80375 16.03070313 14.154375 16.85828125 14.515625 17.7109375 C14.83692383 18.46165527 15.15822266 19.21237305 15.48925781 19.98583984 C16.19709238 22.78160549 15.87958464 24.50026007 15.0625 27.25 C13.25180361 30.22888761 11.52725374 32.78524626 9.0625 35.25 C9.50310136 43.18082441 16.96455099 50.57762752 22.40966797 55.84082031 C25.47730567 58.456242 28.87325969 60.46007955 32.375 62.4375 C33.0565918 62.82397705 33.73818359 63.2104541 34.44042969 63.60864258 C39.51824986 66.39122981 39.51824986 66.39122981 45.0625 66.25 C47.63532896 63.8463494 47.63532896 63.8463494 49.875 60.75 C51.06029297 59.21859375 51.06029297 59.21859375 52.26953125 57.65625 C52.86121094 56.8621875 53.45289063 56.068125 54.0625 55.25 C59.46105625 55.80087309 63.51536003 57.72199624 68.25 60.1875 C68.96091797 60.54779297 69.67183594 60.90808594 70.40429688 61.27929688 C73.41958955 62.81956397 76.23838068 64.36725378 79.0625 66.25 C79.65410285 72.06742801 78.96521612 76.04512972 76.0625 81.25 C71.04631413 86.41372075 64.16551617 89.43536757 57 89.8125 C36.58296739 88.95703774 17.61088181 76.68527143 4.0625 62.25 C1.78187944 59.58900013 -0.37543011 56.84916591 -2.5 54.0625 C-3.06428711 53.32435059 -3.62857422 52.58620117 -4.20996094 51.82568359 C-12.89926263 40.21224298 -17.03756922 29.88703208 -15.9375 15.25 C-14.37403747 9.69291037 -10.8095231 5.42770914 -6.9375 1.25 C-4.48367866 0.02308933 -2.73765897 0.04824069 0 0 Z " fill="#F9FDFA" transform="translate(79.9375,66.75)"/>
<path d="M0 0 C1.11697266 -0.020625 2.23394531 -0.04125 3.38476562 -0.0625 C14.10175441 -0.11220198 23.78752466 2.08071161 33.5625 6.4375 C34.23990234 6.73720703 34.91730469 7.03691406 35.61523438 7.34570312 C41.65135838 10.13647543 46.51428625 13.78806033 51.4375 18.25 C52.14261719 18.82621094 52.84773438 19.40242188 53.57421875 19.99609375 C63.81592239 28.44306075 72.48613851 41.13824323 75.4375 54.25 C73.9525 53.755 73.9525 53.755 72.4375 53.25 C72.0653958 51.92696283 71.73119827 50.59262065 71.4375 49.25 C70.7775 48.92 70.1175 48.59 69.4375 48.25 C68.76171875 46.2890625 68.76171875 46.2890625 68.125 43.875 C66.95955294 39.99439713 66.95955294 39.99439713 63.8125 37.4375 C63.02875 37.045625 62.245 36.65375 61.4375 36.25 C60.625 34.0625 60.625 34.0625 60.4375 32.25 C60.1075 33.24 59.7775 34.23 59.4375 35.25 C58.7775 35.25 58.1175 35.25 57.4375 35.25 C58.3125 30.5 58.3125 30.5 59.4375 28.25 C58.7775 28.25 58.1175 28.25 57.4375 28.25 C56.4475 26.27 56.4475 26.27 55.4375 24.25 C54.4475 24.25 53.4575 24.25 52.4375 24.25 C50.25 23.25 50.25 23.25 48.4375 22.25 C48.4375 21.26 48.4375 20.27 48.4375 19.25 C47.1175 18.59 45.7975 17.93 44.4375 17.25 C44.4375 16.59 44.4375 15.93 44.4375 15.25 C43.4475 15.58 42.4575 15.91 41.4375 16.25 C38.69937393 15.79451823 36.1173824 14.99685247 33.4375 14.25 C33.4375 12.6 33.4375 10.95 33.4375 9.25 C32.4475 9.25 31.4575 9.25 30.4375 9.25 C29.9425 8.26 29.9425 8.26 29.4375 7.25 C27.1275 7.25 24.8175 7.25 22.4375 7.25 C21.9425 6.26 21.9425 6.26 21.4375 5.25 C19.4575 6.24 19.4575 6.24 17.4375 7.25 C16.9425 5.765 16.9425 5.765 16.4375 4.25 C14.20860504 4.19571027 11.97932529 4.15707662 9.75 4.125 C8.50863281 4.10179687 7.26726562 4.07859375 5.98828125 4.0546875 C2.59476578 4.24134952 0.48330842 4.84382463 -2.5625 6.25 C-8.25853866 6.99947877 -12.92944353 4.33870431 -17.5625 1.25 C-11.71808169 -0.08061012 -5.96892386 0.02690219 0 0 Z M67.4375 48.25 C69.4375 49.25 69.4375 49.25 69.4375 49.25 Z " fill="#5BCC65" transform="translate(110.5625,32.75)"/>
<path d="M0 0 C0 0.33 0 0.66 0 1 C-1.65 1 -3.3 1 -5 1 C-5 1.66 -5 2.32 -5 3 C-6.65 3.33 -8.3 3.66 -10 4 C-10 4.66 -10 5.32 -10 6 C-10.99 6 -11.98 6 -13 6 C-13 7.32 -13 8.64 -13 10 C-16.27360238 11.19765941 -19.0733891 12.00643764 -22.5625 12.3125 C-26.77599448 13.1551989 -28.26986961 14.77348227 -31 18 C-30.67 18.66 -30.34 19.32 -30 20 C-32.02917452 23.04376178 -32.72582285 23.74810874 -36 25 C-37.32 25 -38.64 25 -40 25 C-40 25.99 -40 26.98 -40 28 C-41.28659163 29.37849103 -42.62913085 30.70529025 -44 32 C-47.05990114 35.1448984 -47.95755093 36.35265164 -48.25 40.8125 C-48.1675 41.864375 -48.085 42.91625 -48 44 C-48.639375 44.226875 -49.27875 44.45375 -49.9375 44.6875 C-52.24550302 45.83446488 -52.24550302 45.83446488 -52.6875 48.4375 C-52.790625 49.283125 -52.89375 50.12875 -53 51 C-53.33 51.99 -53.66 52.98 -54 54 C-54.35236497 55.99673484 -54.68834559 57.99650739 -55 60 C-55.66 60 -56.32 60 -57 60 C-57 61.98 -57 63.96 -57 66 C-57.66 65.34 -58.32 64.68 -59 64 C-58.35882565 46.68829245 -47.9613343 29.04183911 -35.54052734 17.3671875 C-27.63048341 10.34718021 -10.98309007 -3.66103002 0 0 Z " fill="#5DC668" transform="translate(93,36)"/>
<path d="M0 0 C1.48828125 1.30078125 1.48828125 1.30078125 3 3 C3.1875 6.1875 3.1875 6.1875 3 9 C3.99 9.33 4.98 9.66 6 10 C6 10.66 6 11.32 6 12 C6.5775 11.690625 7.155 11.38125 7.75 11.0625 C11.8586965 9.12228221 15.86588428 8.74287657 20.375 8.375 C21.47585937 8.27960938 22.57671875 8.18421875 23.7109375 8.0859375 C26.97269632 8.0007134 29.80109314 8.40956816 33 9 C34.32 9 35.64 9 37 9 C39 9 41 9 43 9 C43.66 11.31 44.32 13.62 45 16 C47.31 16.33 49.62 16.66 52 17 C52.495 18.485 52.495 18.485 53 20 C45.18845328 19.86050809 32.75371323 16.75371323 27 11 C21.05992753 10.5611556 16.05542873 11.85800107 10.375 13.5 C0.3930273 16.35861447 0.3930273 16.35861447 -4 16 C-3.39891424 10.34979382 -1.92471317 5.33835539 0 0 Z " fill="#34AA49" transform="translate(44,167)"/>
<path d="M0 0 C0.66 0 1.32 0 2 0 C2 0.66 2 1.32 2 2 C2.556875 1.649375 3.11375 1.29875 3.6875 0.9375 C6.56343055 -0.22841779 8.02931016 0.31445619 11 1 C11.99 0.67 12.98 0.34 14 0 C14.66 0.33 15.32 0.66 16 1 C11.15433383 4.55192035 6.25991604 6.65414586 0.625 8.6875 C-0.18710938 8.99494141 -0.99921875 9.30238281 -1.8359375 9.61914062 C-9.61107159 12.46628508 -16.94318601 13.17233577 -25.1875 13.125 C-25.87263672 13.12886719 -26.55777344 13.13273438 -27.26367188 13.13671875 C-30.96843247 13.12958735 -34.39838164 12.88117265 -38 12 C-37.67 11.34 -37.34 10.68 -37 10 C-35.68 10 -34.36 10 -33 10 C-33 9.34 -33 8.68 -33 8 C-32.01 8.33 -31.02 8.66 -30 9 C-30.33 9.33 -30.66 9.66 -31 10 C-30.32453125 9.98839844 -29.6490625 9.97679687 -28.953125 9.96484375 C-27.61507812 9.95130859 -27.61507812 9.95130859 -26.25 9.9375 C-24.92742187 9.92009766 -24.92742187 9.92009766 -23.578125 9.90234375 C-21.2181162 9.99173802 -19.25501476 10.33087179 -17 11 C-17 10.34 -17 9.68 -17 9 C-14.525 9.495 -14.525 9.495 -12 10 C-12 9.34 -12 8.68 -12 8 C-10.906875 8.061875 -9.81375 8.12375 -8.6875 8.1875 C-5.15406066 8.31890334 -5.15406066 8.31890334 -3.1875 6.8125 C-1.76288931 4.63809421 -0.86015117 2.44812255 0 0 Z " fill="#2CA941" transform="translate(137,176)"/>
<path d="M0 0 C1.32 0.33 2.64 0.66 4 1 C4 1.99 4 2.98 4 4 C4.66 4.33 5.32 4.66 6 5 C6 4.34 6 3.68 6 3 C11.38671645 1.63194503 16.39682164 0.54259769 22 1 C22.66 1.66 23.32 2.32 24 3 C20.9355782 4.02147393 19.28879046 3.96156046 16.125 3.75 C12.27937468 3.71646257 11.33101406 3.75533743 8.125 6.125 C3.16374441 12.83728697 0.82684553 17.06664866 0.875 25.4375 C0.87242188 26.75621094 0.86984375 28.07492188 0.8671875 29.43359375 C0.9702969 32.20238454 1.15917433 34.39077114 2 37 C1.34 37 0.68 37 0 37 C-4.00163776 28.99672448 -1.66889296 18.34446478 0 10 C0 9.34 0 8.68 0 8 C0 5.33333333 0 2.66666667 0 0 Z " fill="#5BC267" transform="translate(64,64)"/>
<path d="M0 0 C0.99 0.33 1.98 0.66 3 1 C3.6875 3.0625 3.6875 3.0625 4 5 C4.66 5 5.32 5 6 5 C8.45549986 10.25667687 10.58779564 15.35118255 12 21 C12.34546875 22.21558594 12.6909375 23.43117188 13.046875 24.68359375 C14.63373561 31.86029884 14.21050773 39.25481561 14.125 46.5625 C14.11494923 48.06314506 14.10582709 49.56379665 14.09765625 51.06445312 C14.07581091 54.70977281 14.0413969 58.35484376 14 62 C13.34 62 12.68 62 12 62 C12.01571045 61.15928955 12.0314209 60.3185791 12.04760742 59.45239258 C12.09940813 56.2671954 12.13667113 53.08221617 12.16479492 49.89672852 C12.17967888 48.53044474 12.19999286 47.16420692 12.22631836 45.7980957 C12.46611002 33.01390874 11.08404387 21.67864396 4.875 10.375 C1.05 3.15 1.05 3.15 0 0 Z " fill="#CDF8D5" transform="translate(176,66)"/>
<path d="M0 0 C0.8971875 0.5259375 0.8971875 0.5259375 1.8125 1.0625 C1.25641235 5.10591697 -0.8152354 7.27522809 -3.5 10.25 C-4.66982422 11.57064453 -4.66982422 11.57064453 -5.86328125 12.91796875 C-8.11328054 14.99401851 -9.20501795 15.71443001 -12.1875 16.0625 C-13.6481285 13.41511084 -14.1875 12.16801666 -14.1875 9.0625 C-13.1975 8.7325 -12.2075 8.4025 -11.1875 8.0625 C-10.8575 8.7225 -10.5275 9.3825 -10.1875 10.0625 C-6.52293232 8.2943593 -6.52293232 8.2943593 -4.3125 5.0625 C-4.04900882 2.8533249 -4.04900882 2.8533249 -5.1875 0.0625 C-2.1875 -0.9375 -2.1875 -0.9375 0 0 Z " fill="#27B240" transform="translate(174.1875,151.9375)"/>
<path d="M0 0 C0.99 0.33 1.98 0.66 3 1 C2.67 1.33 2.34 1.66 2 2 C2.67546875 1.98839844 3.3509375 1.97679687 4.046875 1.96484375 C5.38492188 1.95130859 5.38492188 1.95130859 6.75 1.9375 C8.07257813 1.92009766 8.07257813 1.92009766 9.421875 1.90234375 C11.7818838 1.99173802 13.74498524 2.33087179 16 3 C16 2.34 16 1.68 16 1 C18.475 1.495 18.475 1.495 21 2 C21 1.34 21 0.68 21 0 C22.98 0 24.96 0 27 0 C27 0.99 27 1.98 27 3 C20.52161845 4.53724308 14.26273011 5.19360647 7.625 5.1875 C6.60889648 5.1884668 6.60889648 5.1884668 5.57226562 5.18945312 C1.93183088 5.14976553 -1.45940817 4.85438992 -5 4 C-4.67 3.34 -4.34 2.68 -4 2 C-2.68 2 -1.36 2 0 2 C0 1.34 0 0.68 0 0 Z " fill="#2FAA45" transform="translate(104,184)"/>
<path d="M0 0 C5.95324421 1.39331247 10.75741484 3.88535757 16 7 C13.50907189 8.24546405 12.58919267 7.7767578 10 7 C10 7.66 10 8.32 10 9 C9.34 9 8.68 9 8 9 C8 8.34 8 7.68 8 7 C5.36 7.66 2.72 8.32 0 9 C-0.84454356 5.62182575 -1.10844919 3.32534757 0 0 Z " fill="#2CB73F" transform="translate(97,143)"/>
<path d="M0 0 C4.59353481 3.16657286 6.72413104 6.46739419 9.1875 11.3125 C9.52974609 11.95123047 9.87199219 12.58996094 10.22460938 13.24804688 C12.40036782 17.41789849 13.84972625 21.44019687 15 26 C14.01 25.67 13.02 25.34 12 25 C11.6278958 23.67696283 11.29369827 22.34262065 11 21 C10.34 20.67 9.68 20.34 9 20 C8.32421875 18.0390625 8.32421875 18.0390625 7.6875 15.625 C6.58802609 11.76517807 6.58802609 11.76517807 3.375 9.4375 C1 8 1 8 0.45703125 6.0546875 C0.21547067 4.04518356 0.09941938 2.02152749 0 0 Z M7 20 C9 21 9 21 9 21 Z " fill="#5EC369" transform="translate(171,61)"/>
<path d="M0 0 C6.75 1.125 6.75 1.125 10 4 C9.01 4 8.02 4 7 4 C6.67 4.66 6.34 5.32 6 6 C4.00371336 6.3548954 2.00309329 6.68578929 0 7 C-3.19007863 8.24085696 -3.19007863 8.24085696 -5 11 C-5.99 10.67 -6.98 10.34 -8 10 C-5.36 6.7 -2.72 3.4 0 0 Z " fill="#F4FAF6" transform="translate(134,122)"/>
<path d="M0 0 C1 3 1 3 -0.0625 6.375 C-1.07254907 10.28052306 -0.88524887 11.5437104 1 15 C0.01 15 -0.98 15 -2 15 C-3.421875 13.390625 -3.421875 13.390625 -4.75 11.25 C-5.19859375 10.55390625 -5.6471875 9.8578125 -6.109375 9.140625 C-7.1743727 6.58089369 -7.00257402 5.54416634 -6 3 C-3.90598151 0.33488555 -3.51745769 0 0 0 Z " fill="#48BE58" transform="translate(95,98)"/>
<path d="M0 0 C1.9375 1.5 1.9375 1.5 3 3 C-0.69405432 5.46270288 -2.63277072 5.22985417 -7 5 C-7.60457031 4.82210937 -8.20914063 4.64421875 -8.83203125 4.4609375 C-11.73863536 3.84295681 -14.29920467 4.14883524 -17.25 4.4375 C-18.32765625 4.53933594 -19.4053125 4.64117187 -20.515625 4.74609375 C-21.33546875 4.82988281 -22.1553125 4.91367188 -23 5 C-23 4.67 -23 4.34 -23 4 C-20.48159185 3.322781 -17.96091276 2.65808826 -15.4375 2 C-14.73302734 1.80921875 -14.02855469 1.6184375 -13.30273438 1.421875 C-8.78199282 0.25523202 -4.70940114 -0.33298796 0 0 Z " fill="#DBF7E2" transform="translate(71,177)"/>
<path d="M0 0 C1.52519276 0.08937803 3.04681929 0.24537146 4.5625 0.4375 C5.38878906 0.53933594 6.21507813 0.64117187 7.06640625 0.74609375 C7.70449219 0.82988281 8.34257813 0.91367188 9 1 C9.66 3.31 10.32 5.62 11 8 C8.36 7.67 5.72 7.34 3 7 C3 6.34 3 5.68 3 5 C0.03 4.505 0.03 4.505 -3 4 C-3 3.34 -3 2.68 -3 2 C-3.99 1.67 -4.98 1.34 -6 1 C-4.7934375 1.0309375 -4.7934375 1.0309375 -3.5625 1.0625 C-1.06645115 1.29633621 -1.06645115 1.29633621 0 0 Z " fill="#22B23B" transform="translate(78,175)"/>
<path d="M0 0 C3.10414702 -0.02903577 6.20825909 -0.0468107 9.3125 -0.0625 C10.19357422 -0.07087891 11.07464844 -0.07925781 11.98242188 -0.08789062 C12.82998047 -0.09111328 13.67753906 -0.09433594 14.55078125 -0.09765625 C15.72120972 -0.10551147 15.72120972 -0.10551147 16.9152832 -0.11352539 C19 0 19 0 22 1 C21.67 1.99 21.34 2.98 21 4 C10.99322187 4.17487573 10.99322187 4.17487573 6 3 C4.68 3 3.36 3 2 3 C1.34 2.01 0.68 1.02 0 0 Z " fill="#28B43F" transform="translate(131,156)"/>
<path d="M0 0 C0 4.29 0 8.58 0 13 C-0.99 13 -1.98 13 -3 13 C-4.75 11.25 -4.75 11.25 -6 9 C-5.72330471 6.64809002 -5.05656463 5.11312926 -4 3 C-4.66 3 -5.32 3 -6 3 C-6 2.34 -6 1.68 -6 1 C-6.66 0.67 -7.32 0.34 -8 0 C-6 -1 -6 -1 0 0 Z " fill="#31B745" transform="translate(48,139)"/>
<path d="M0 0 C0.66 1.32 1.32 2.64 2 4 C1.175 4.70125 0.35 5.4025 -0.5 6.125 C-3.45620077 9.52463089 -3.28280545 10.6636498 -3 15 C-3.99 16.485 -3.99 16.485 -5 18 C-5 18.99 -5 19.98 -5 21 C-5.66 21 -6.32 21 -7 21 C-7 22.98 -7 24.96 -7 27 C-7.66 26.34 -8.32 25.68 -9 25 C-8.74346785 18.07363193 -7.1898339 8.51516521 -2.4296875 3.26953125 C-1.95789062 2.85058594 -1.48609375 2.43164062 -1 2 C-0.67 1.34 -0.34 0.68 0 0 Z " fill="#4FC25D" transform="translate(43,75)"/>
<path d="M0 0 C0 0.33 0 0.66 0 1 C-1.65 1 -3.3 1 -5 1 C-5 1.66 -5 2.32 -5 3 C-6.65 3.33 -8.3 3.66 -10 4 C-10 4.66 -10 5.32 -10 6 C-10.99 6 -11.98 6 -13 6 C-13.33 7.32 -13.66 8.64 -14 10 C-14.66 9.34 -15.32 8.68 -16 8 C-15.34 8 -14.68 8 -14 8 C-14 7.34 -14 6.68 -14 6 C-15.98 6.33 -17.96 6.66 -20 7 C-16.72901659 4.26748314 -13.40117578 2.78316242 -9.4375 1.25 C-8.30183594 0.80140625 -7.16617188 0.3528125 -5.99609375 -0.109375 C-3 -1 -3 -1 0 0 Z " fill="#62CD6E" transform="translate(93,36)"/>
<path d="M0 0 C3 3 3 3 3.1875 6.1875 C3.125625 7.115625 3.06375 8.04375 3 9 C3.99 9.33 4.98 9.66 6 10 C6 10.66 6 11.32 6 12 C3.6875 12.625 3.6875 12.625 1 13 C0.01 12.34 -0.98 11.68 -2 11 C-1.34 7.37 -0.68 3.74 0 0 Z " fill="#21B139" transform="translate(44,167)"/>
<path d="M0 0 C0.33 0 0.66 0 1 0 C1.02505615 0.589021 1.0501123 1.17804199 1.07592773 1.78491211 C1.19332361 4.50258671 1.31538715 7.22003342 1.4375 9.9375 C1.47681641 10.86369141 1.51613281 11.78988281 1.55664062 12.74414062 C1.82079121 18.53513419 2.29764309 24.24539503 3 30 C2.34 30 1.68 30 1 30 C-1.17618404 19.60483515 -1.22887343 10.51125667 0 0 Z " fill="#C3EEC9" transform="translate(33,102)"/>
<path d="M0 0 C1.231394 3.69418201 0.64432764 6.2056261 0 10 C-0.66 10 -1.32 10 -2 10 C-2.33 13.96 -2.66 17.92 -3 22 C-2.34 22 -1.68 22 -1 22 C-1 23.98 -1 25.96 -1 28 C-4.97018936 24.02981064 -4.28411914 19.09245966 -4.33007812 13.78100586 C-4.24803326 8.1370029 -3.04947018 4.66950121 0 0 Z " fill="#DFFAE2" transform="translate(68,74)"/>
<path d="M0 0 C2.31 0 4.62 0 7 0 C7.6875 1.8125 7.6875 1.8125 8 4 C6.8125 5.75 6.8125 5.75 5 7 C3.68 7 2.36 7 1 7 C0.67 4.69 0.34 2.38 0 0 Z " fill="#27B13F" transform="translate(152,168)"/>
<path d="M0 0 C1 3 1 3 1 6 C0.67 6.66 0.34 7.32 0 8 C-0.804375 8.103125 -1.60875 8.20625 -2.4375 8.3125 C-3.7059375 8.6528125 -3.7059375 8.6528125 -5 9 C-6.52625639 11.84553791 -6.52625639 11.84553791 -7 15 C-8.98 15 -10.96 15 -13 15 C-8.70214922 9.96836982 -4.36574458 4.97281557 0 0 Z " fill="#DFF9E2" transform="translate(174,157)"/>
<path d="M0 0 C0.33 0 0.66 0 1 0 C1.02505615 0.62455078 1.0501123 1.24910156 1.07592773 1.89257812 C1.19300381 4.76187123 1.31521751 7.63092425 1.4375 10.5 C1.47681641 11.48226562 1.51613281 12.46453125 1.55664062 13.4765625 C1.79760617 19.0373059 2.21921169 24.48855309 3 30 C3.66 30 4.32 30 5 30 C4.67 31.98 4.34 33.96 4 36 C-0.23788318 28.02588334 -0.27028493 19.79429295 -0.125 10.9375 C-0.11597656 9.88111328 -0.10695312 8.82472656 -0.09765625 7.73632812 C-0.0743167 5.15730747 -0.04157775 2.5787801 0 0 Z " fill="#41B155" transform="translate(34,100)"/>
<path d="M0 0 C2 0 2 0 3.4375 1.3125 C4.2109375 2.1478125 4.2109375 2.1478125 5 3 C5.556875 3.391875 6.11375 3.78375 6.6875 4.1875 C8.87968556 7.21480387 8.17970042 10.34609138 8 14 C7.01 14.495 7.01 14.495 6 15 C4.02 10.05 2.04 5.1 0 0 Z " fill="#59C266" transform="translate(87,69)"/>
<path d="M0 0 C1.32 0 2.64 0 4 0 C4 0.66 4 1.32 4 2 C5.65 2.33 7.3 2.66 9 3 C9 3.99 9 4.98 9 6 C9.66 6.33 10.32 6.66 11 7 C10.01 7.495 10.01 7.495 9 8 C6.3984375 7.00390625 6.3984375 7.00390625 3.375 5.5625 C2.37210938 5.08941406 1.36921875 4.61632812 0.3359375 4.12890625 C-0.43492187 3.75636719 -1.20578125 3.38382812 -2 3 C-1.34 2.67 -0.68 2.34 0 2 C0 1.34 0 0.68 0 0 Z " fill="#43BB57" transform="translate(140,120)"/>
<path d="M0 0 C1.15693359 0.00322266 2.31386719 0.00644531 3.50585938 0.00976562 C4.70404297 0.01814453 5.90222656 0.02652344 7.13671875 0.03515625 C8.96299805 0.04192383 8.96299805 0.04192383 10.82617188 0.04882812 C13.82557101 0.06059047 16.82486964 0.07702799 19.82421875 0.09765625 C19.82421875 0.75765625 19.82421875 1.41765625 19.82421875 2.09765625 C19.26549072 2.09241943 18.7067627 2.08718262 18.13110352 2.08178711 C15.54965381 2.06073906 12.96822226 2.04790891 10.38671875 2.03515625 C9.06897461 2.02258789 9.06897461 2.02258789 7.72460938 2.00976562 C3.34496608 1.99360458 -0.86786984 2.13571038 -5.2109375 2.7265625 C-6.51933594 2.84902344 -7.82773438 2.97148438 -9.17578125 3.09765625 C-9.83578125 2.43765625 -10.49578125 1.77765625 -11.17578125 1.09765625 C-7.38503588 0.21202536 -3.88882227 -0.01915676 0 0 Z " fill="#63C16E" transform="translate(104.17578125,32.90234375)"/>
<path d="M0 0 C0.598125 0.350625 1.19625 0.70125 1.8125 1.0625 C1.34047514 5.31072374 -1.15405518 7.26239709 -4.1875 10.0625 C-4.166875 8.969375 -4.14625 7.87625 -4.125 6.75 C-4.00205548 3.11865809 -4.00205548 3.11865809 -5.1875 0.0625 C-2.1875 -0.9375 -2.1875 -0.9375 0 0 Z " fill="#3CB352" transform="translate(174.1875,151.9375)"/>
<path d="M0 0 C1.58628608 0.59637091 3.16892059 1.20245925 4.75 1.8125 C5.63171875 2.14894531 6.5134375 2.48539063 7.421875 2.83203125 C10.00101542 4.00046002 11.9587044 5.03430794 14 7 C14.52799676 9.76142303 14.18598981 12.16365545 14 15 C13.67 15 13.34 15 13 15 C13 12.69 13 10.38 13 8 C12.0925 7.896875 11.185 7.79375 10.25 7.6875 C6.91400609 6.98180898 5.53150464 6.18233159 3 4 C2.01 3.34 1.02 2.68 0 2 C0 1.34 0 0.68 0 0 Z " fill="#D8F9DC" transform="translate(145,126)"/>
<path d="M0 0 C-0.33 1.32 -0.66 2.64 -1 4 C-4.375 3.75 -4.375 3.75 -8 3 C-9.4375 0.9375 -9.4375 0.9375 -10 -1 C-6.06329512 -2.31223496 -3.87511856 -1.24296256 0 0 Z " fill="#38B74C" transform="translate(126,130)"/>
<path d="M0 0 C2.92812989 3.59361395 5.16173448 6.78962876 4.8125 11.5625 C3.93691851 14.18924448 2.78683388 15.90241241 1 18 C0.91773332 14.95613276 1.02391783 12.92824652 2 10 C1.35902703 7.99161804 0.69100553 5.99172182 0 4 C0 2.68 0 1.36 0 0 Z " fill="#D7F8D9" transform="translate(91,80)"/>
<path d="M0 0 C0.33 0.99 0.66 1.98 1 3 C-1.8561179 7.03216645 -4.46441262 9.85156387 -9 12 C-9.99 12 -10.98 12 -12 12 C-12 11.34 -12 10.68 -12 10 C-11.34 10 -10.68 10 -10 10 C-10 9.34 -10 8.68 -10 8 C-8.68 8 -7.36 8 -6 8 C-6 7.34 -6 6.68 -6 6 C-5.01 6 -4.02 6 -3 6 C-2.690625 5.38125 -2.38125 4.7625 -2.0625 4.125 C-1.375 2.75 -0.6875 1.375 0 0 Z " fill="#D7F7DA" transform="translate(157,142)"/>
<path d="M0 0 C0.66 0 1.32 0 2 0 C2 0.66 2 1.32 2 2 C2.66 2 3.32 2 4 2 C4 1.34 4 0.68 4 0 C5.32 0 6.64 0 8 0 C8 0.99 8 1.98 8 3 C7.01 3.495 7.01 3.495 6 4 C6.33 4.598125 6.66 5.19625 7 5.8125 C8 8 8 8 8 11 C4.32966073 7.72291137 2.30718811 4.28477792 0 0 Z " fill="#E6F9E9" transform="translate(72,112)"/>
<path d="M0 0 C3.63 1.98 7.26 3.96 11 6 C8.50907189 7.24546405 7.58919267 6.7767578 5 6 C5 6.66 5 7.32 5 8 C4.34 8 3.68 8 3 8 C2.67 7.01 2.34 6.02 2 5 C0.50014391 3.33289654 0.50014391 3.33289654 -1 2 C-0.67 1.34 -0.34 0.68 0 0 Z " fill="#33B14A" transform="translate(102,144)"/>
<path d="M0 0 C0.99 0.33 1.98 0.66 3 1 C3.6875 3.0625 3.6875 3.0625 4 5 C4.66 5 5.32 5 6 5 C7.32 8.3 8.64 11.6 10 15 C9.34 15.66 8.68 16.32 8 17 C4.04 8.585 4.04 8.585 0 0 Z " fill="#E0FAE3" transform="translate(176,66)"/>
<path d="M0 0 C1.3303125 0.5259375 1.3303125 0.5259375 2.6875 1.0625 C6.06203126 2.01755602 7.69686152 1.97151132 11 1 C9.33784732 2.33895632 7.67036393 3.67130142 6 5 C4.9171875 5.86625 4.9171875 5.86625 3.8125 6.75 C2 8 2 8 0 8 C0 5.36 0 2.72 0 0 Z " fill="#E6F9E8" transform="translate(64,40)"/>
<path d="M0 0 C0.66 0 1.32 0 2 0 C2 0.66 2 1.32 2 2 C3.32 2.33 4.64 2.66 6 3 C6 3.66 6 4.32 6 5 C3.03 5.66 0.06 6.32 -3 7 C-2.01 4.69 -1.02 2.38 0 0 Z " fill="#21B336" transform="translate(137,176)"/>
<path d="M0 0 C0.66 0 1.32 0 2 0 C1.67 2.31 1.34 4.62 1 7 C4.465 6.505 4.465 6.505 8 6 C7.67 6.66 7.34 7.32 7 8 C3.7 8 0.4 8 -3 8 C-2.22404875 4.89619499 -1.4731994 2.74997221 0 0 Z " fill="#D5F4DA" transform="translate(39,176)"/>
<path d="M0 0 C0.66 0.33 1.32 0.66 2 1 C1.67 1.66 1.34 2.32 1 3 C1.66 3.33 2.32 3.66 3 4 C2.67 4.66 2.34 5.32 2 6 C1.13375 5.814375 0.2675 5.62875 -0.625 5.4375 C-4.05152628 4.99332067 -6.64212371 5.28045508 -10 6 C-8.0331974 4.0331974 -6.4555341 3.0628363 -4 1.8125 C-3.29875 1.44769531 -2.5975 1.08289063 -1.875 0.70703125 C-1.25625 0.47371094 -0.6375 0.24039063 0 0 Z " fill="#D8F7E0" transform="translate(152,177)"/>
<path d="M0 0 C0.66 0 1.32 0 2 0 C1.85795259 1.58367747 1.71119847 3.16693318 1.5625 4.75 C1.48128906 5.63171875 1.40007813 6.5134375 1.31640625 7.421875 C1.03761535 9.69350452 0.61209423 11.79851823 0 14 C-0.99 13.67 -1.98 13.34 -3 13 C-2.68817931 11.58318366 -2.37551263 10.16655349 -2.0625 8.75 C-1.88847656 7.96109375 -1.71445312 7.1721875 -1.53515625 6.359375 C-1.052444 4.23121297 -0.53836822 2.11467158 0 0 Z " fill="#37AF4A" transform="translate(47,154)"/>
<path d="M0 0 C-0.33 1.65 -0.66 3.3 -1 5 C-2.98 5.33 -4.96 5.66 -7 6 C-7.33 5.34 -7.66 4.68 -8 4 C-6 1 -6 1 -4 0.3125 C-2 0 -2 0 0 0 Z " fill="#52D062" transform="translate(79,42)"/>
<path d="M0 0 C3.48872415 1.16290805 4.09976864 2.13967609 6.1875 5.0625 C6.71730469 5.79597656 7.24710937 6.52945313 7.79296875 7.28515625 C8.19128906 7.85105469 8.58960937 8.41695312 9 9 C7.68 9 6.36 9 5 9 C5 8.34 5 7.68 5 7 C4.360625 6.773125 3.72125 6.54625 3.0625 6.3125 C1 5 1 5 0.25 2.375 C0.1675 1.59125 0.085 0.8075 0 0 Z " fill="#43B555" transform="translate(81,126)"/>
<path d="M0 0 C0.99 0 1.98 0 3 0 C3.2475 0.61875 3.495 1.2375 3.75 1.875 C5.20628639 4.35068687 6.37812506 4.95125002 9 6 C9 6.66 9 7.32 9 8 C6.69 7.67 4.38 7.34 2 7 C1.34 4.69 0.68 2.38 0 0 Z " fill="#33BC47" transform="translate(148,121)"/>
<path d="M0 0 C2.97 0.495 2.97 0.495 6 1 C6.93423645 4.01031744 7.04449911 4.86650268 6 8 C4.9970458 6.85675161 3.99770973 5.71032809 3 4.5625 C2.443125 3.92441406 1.88625 3.28632812 1.3125 2.62890625 C0 1 0 1 0 0 Z " fill="#46BA58" transform="translate(95,114)"/>
<path d="M0 0 C0.87785156 0.01546875 1.75570312 0.0309375 2.66015625 0.046875 C4.9375 0.25 4.9375 0.25 6.9375 1.25 C6.6075 1.91 6.2775 2.57 5.9375 3.25 C4.926875 3.064375 3.91625 2.87875 2.875 2.6875 C-1.04164227 2.25231753 -4.20494663 2.54146979 -8.0625 3.25 C-5.57851986 0.13477739 -3.91265985 -0.11524771 0 0 Z " fill="#D2F9D3" transform="translate(80.0625,66.75)"/>
<path d="M0 0 C0.66 0.33 1.32 0.66 2 1 C2 3.31 2 5.62 2 8 C1.34 8 0.68 8 0 8 C0 9.98 0 11.96 0 14 C-0.66 13.34 -1.32 12.68 -2 12 C-1.66887313 7.89402683 -1.15559618 3.96204403 0 0 Z " fill="#5AC266" transform="translate(36,88)"/>
<path d="M0 0 C0.33 0 0.66 0 1 0 C1 2.64 1 5.28 1 8 C0.34 8 -0.32 8 -1 8 C-1.33 10.64 -1.66 13.28 -2 16 C-2.66 16 -3.32 16 -4 16 C-2.68 10.72 -1.36 5.44 0 0 Z " fill="#E0DEDE" transform="translate(21,184)"/>
<path d="M0 0 C2.31 0.33 4.62 0.66 7 1 C7 1.66 7 2.32 7 3 C8.98 3 10.96 3 13 3 C13.33 3.99 13.66 4.98 14 6 C12.41375765 5.57316761 10.8310902 5.13303842 9.25 4.6875 C8.36828125 4.44386719 7.4865625 4.20023438 6.578125 3.94921875 C3.94227495 2.97874669 2.14592674 1.78994356 0 0 Z " fill="#CDF4D5" transform="translate(106,146)"/>
<path d="M0 0 C0.268125 0.639375 0.53625 1.27875 0.8125 1.9375 C1.88667752 4.33131686 1.88667752 4.33131686 5 5 C5 5.66 5 6.32 5 7 C3.02 7.33 1.04 7.66 -1 8 C-1.125 2.25 -1.125 2.25 0 0 Z " fill="#31BA41" transform="translate(89,135)"/>
<path d="M0 0 C4.21912747 0.4794463 6.79663178 1.16625119 10 4 C8.14375 3.7215625 8.14375 3.7215625 6.25 3.4375 C3.23720423 3.05288777 0.89989173 2.9125406 -2 4 C-1.34 2.68 -0.68 1.36 0 0 Z " fill="#D8F8D9" transform="translate(134,122)"/>
<path d="M0 0 C-1.27596315 2.55192629 -2.37156116 2.99500868 -5 4 C-5.99 3.67 -6.98 3.34 -8 3 C-7.67 2.01 -7.34 1.02 -7 0 C-4.3333581 -1.33332095 -2.83319697 -0.67102033 0 0 Z " fill="#2DB843" transform="translate(184,137)"/>
<path d="M0 0 C1.46573934 0.90477737 2.92235756 1.82434141 4.375 2.75 C5.18710938 3.26046875 5.99921875 3.7709375 6.8359375 4.296875 C9.08555679 6.0673335 9.95906848 7.36907419 11 10 C10.01 9.67 9.02 9.34 8 9 C8 8.34 8 7.68 8 7 C6.8553125 6.5978125 6.8553125 6.5978125 5.6875 6.1875 C3.11011382 5.04865495 1.73045136 4.18583329 0 2 C0 1.34 0 0.68 0 0 Z " fill="#3DAF54" transform="translate(90,135)"/>
<path d="M0 0 C0.33 0 0.66 0 1 0 C2.74736842 5.24210526 2.74736842 5.24210526 3 8 C1.25 10.5 1.25 10.5 -1 12 C-1.66 12 -2.32 12 -3 12 C-2.01 8.04 -1.02 4.08 0 0 Z " fill="#DCF9E0" transform="translate(187,128)"/>
<path d="M0 0 C1.23556641 0.01740234 1.23556641 0.01740234 2.49609375 0.03515625 C3.32238281 0.04417969 4.14867188 0.05320313 5 0.0625 C5.63808594 0.07410156 6.27617187 0.08570313 6.93359375 0.09765625 C6.60359375 1.41765625 6.27359375 2.73765625 5.93359375 4.09765625 C4.61359375 4.09765625 3.29359375 4.09765625 1.93359375 4.09765625 C1.60359375 3.43765625 1.27359375 2.77765625 0.93359375 2.09765625 C-1.0910388 1.44552333 -1.0910388 1.44552333 -3.06640625 1.09765625 C-2.06640625 0.09765625 -2.06640625 0.09765625 0 0 Z " fill="#27AE3D" transform="translate(123.06640625,154.90234375)"/>
<path d="M0 0 C-0.33 0.99 -0.66 1.98 -1 3 C-4.3 2.67 -7.6 2.34 -11 2 C-6.80312837 -0.79791442 -4.79748656 -1.16695619 0 0 Z " fill="#37B350" transform="translate(153,154)"/>
<path d="M0 0 C1.32 0.33 2.64 0.66 4 1 C3.67 3.31 3.34 5.62 3 8 C2.01 8 1.02 8 0 8 C0 5.36 0 2.72 0 0 Z " fill="#4DCC5C" transform="translate(64,64)"/>
<path d="M0 0 C0 0.33 0 0.66 0 1 C-1.65 1 -3.3 1 -5 1 C-5 1.66 -5 2.32 -5 3 C-6.98 3.33 -8.96 3.66 -11 4 C-11.33 3.34 -11.66 2.68 -12 2 C-10.56656 1.46809459 -9.12804633 0.94984742 -7.6875 0.4375 C-6.48673828 0.00244141 -6.48673828 0.00244141 -5.26171875 -0.44140625 C-3 -1 -3 -1 0 0 Z " fill="#6ACB75" transform="translate(93,36)"/>
<path d="M0 0 C0.66 0 1.32 0 2 0 C0.6302836 3.99500618 -1.25722422 6.80009492 -4 10 C-4 9.34 -4 8.68 -4 8 C-4.66 8 -5.32 8 -6 8 C-5.67 7.34 -5.34 6.68 -5 6 C-4.34 6.33 -3.68 6.66 -3 7 C-2.690625 6.030625 -2.38125 5.06125 -2.0625 4.0625 C-1 1 -1 1 0 0 Z " fill="#DFF8E2" transform="translate(46,64)"/>
<path d="M0 0 C1.32 0 2.64 0 4 0 C3.625 2.9375 3.625 2.9375 3 6 C2.01 6.495 2.01 6.495 1 7 C0.67 4.69 0.34 2.38 0 0 Z " fill="#33B44B" transform="translate(177,143)"/>
<path d="M0 0 C0.33 0.66 0.66 1.32 1 2 C1.66 2.33 2.32 2.66 3 3 C2.0409375 3.433125 2.0409375 3.433125 1.0625 3.875 C-1.15206079 4.82823451 -1.15206079 4.82823451 -2 7 C-2.99 6.67 -3.98 6.34 -5 6 C-3.35 4.02 -1.7 2.04 0 0 Z " fill="#DFFAE4" transform="translate(131,126)"/>
<path d="M0 0 C-3.45245824 2.30163882 -4.94738713 2.34490322 -9 2 C-9.66 1.34 -10.32 0.68 -11 0 C-7.01803543 -1.05404945 -4.01804691 -0.84098656 0 0 Z " fill="#6ACF76" transform="translate(104,34)"/>
<path d="M0 0 C2 1 2 1 2 1 Z M-3 1 C0.33537489 2.11179163 1.63707344 3.47411298 4 6 C0.7 5.01 -2.6 4.02 -6 3 C-5.01 2.34 -4.02 1.68 -3 1 Z " fill="#D8F7D9" transform="translate(142,34)"/>
<path d="M0 0 C4.43090471 1.20842856 6.98112756 2.51668565 10 6 C6.62972148 6 5.93297304 5.50175992 3.3125 3.5625 C2.68988281 3.11003906 2.06726563 2.65757812 1.42578125 2.19140625 C0.95527344 1.79824219 0.48476562 1.40507812 0 1 C0 0.67 0 0.34 0 0 Z " fill="#CCF8D3" transform="translate(96,139)"/>
<path d="M0 0 C2.875 0.6875 2.875 0.6875 6 2 C7.375 4.625 7.375 4.625 8 7 C4.2047869 5.50902342 2.38957269 3.24299151 0 0 Z " fill="#C9F3D1" transform="translate(88,132)"/>
<path d="M0 0 C1.65 1.65 3.3 3.3 5 5 C4.67 5.99 4.34 6.98 4 8 C2 6.25 2 6.25 0 4 C0 2.68 0 1.36 0 0 Z " fill="#30BC41" transform="translate(80,128)"/>
<path d="M0 0 C2.875 -0.125 2.875 -0.125 6 0 C6.66 0.66 7.32 1.32 8 2 C5.04335481 3.4783226 2.25770263 3.06032783 -1 3 C-0.67 2.01 -0.34 1.02 0 0 Z " fill="#24AA3A" transform="translate(54,176)"/>
<path d="M0 0 C0.99 0.99 1.98 1.98 3 3 C0.6875 4.5625 0.6875 4.5625 -2 6 C-2.99 5.67 -3.98 5.34 -5 5 C-3.35 3.35 -1.7 1.7 0 0 Z " fill="#EDFAF3" transform="translate(101,122)"/>
<path d="M0 0 C1.89353366 1.89353366 3.4198632 3.84526801 5 6 C2 6 2 6 -0.1875 4 C-0.785625 3.34 -1.38375 2.68 -2 2 C-1.34 1.34 -0.68 0.68 0 0 Z " fill="#4CBD5F" transform="translate(104,120)"/>
<path d="M0 0 C1.76462683 3.08809695 2 4.23312136 2 8 C1.01 8 0.02 8 -1 8 C-1.125 2.25 -1.125 2.25 0 0 Z " fill="#5BC46B" transform="translate(186,88)"/>
<path d="M0 0 C0.99 0.33 1.98 0.66 3 1 C1 4 1 4 -2.125 4.6875 C-3.07375 4.790625 -4.0225 4.89375 -5 5 C-3.35 3.35 -1.7 1.7 0 0 Z " fill="#DDF9E0" transform="translate(159,172)"/>
<path d="M0 0 C0.598125 0.350625 1.19625 0.70125 1.8125 1.0625 C1.4825 1.7225 1.1525 2.3825 0.8125 3.0625 C-0.1775 2.7325 -1.1675 2.4025 -2.1875 2.0625 C-2.5175 2.7225 -2.8475 3.3825 -3.1875 4.0625 C-3.8475 3.7325 -4.5075 3.4025 -5.1875 3.0625 C-5.1875 2.0725 -5.1875 1.0825 -5.1875 0.0625 C-2.1875 -0.9375 -2.1875 -0.9375 0 0 Z " fill="#28B338" transform="translate(174.1875,151.9375)"/>
<path d="" fill="#FFFFFF" transform="translate(0,0)"/>
<path d="" fill="#FFFFFF" transform="translate(0,0)"/>
<path d="" fill="#FFFFFF" transform="translate(0,0)"/>
<path d="" fill="#FFFFFF" transform="translate(0,0)"/>
<path d="" fill="#FFFFFF" transform="translate(0,0)"/>
<path d="" fill="#FFFFFF" transform="translate(0,0)"/>
<path d="" fill="#FFFFFF" transform="translate(0,0)"/>
<path d="" fill="#FFFFFF" transform="translate(0,0)"/>
<path d="" fill="#FFFFFF" transform="translate(0,0)"/>
<path d="" fill="#FFFFFF" transform="translate(0,0)"/>
<path d="" fill="#FFFFFF" transform="translate(0,0)"/>
<path d="" fill="#FFFFFF" transform="translate(0,0)"/>
<path d="" fill="#FFFFFF" transform="translate(0,0)"/>
<path d="" fill="#FFFFFF" transform="translate(0,0)"/>
<path d="" fill="#FFFFFF" transform="translate(0,0)"/>
<path d="" fill="#FFFFFF" transform="translate(0,0)"/>
<path d="" fill="#FFFFFF" transform="translate(0,0)"/>
<path d="" fill="#FFFFFF" transform="translate(0,0)"/>
<path d="" fill="#FFFFFF" transform="translate(0,0)"/>
<path d="" fill="#FFFFFF" transform="translate(0,0)"/>
<path d="" fill="#FFFFFF" transform="translate(0,0)"/>
<path d="" fill="#FFFFFF" transform="translate(0,0)"/>
<path d="" fill="#FFFFFF" transform="translate(0,0)"/>
<path d="" fill="#FFFFFF" transform="translate(0,0)"/>
<path d="" fill="#FFFFFF" transform="translate(0,0)"/>
<path d="" fill="#FFFFFF" transform="translate(0,0)"/>
<path d="" fill="#FFFFFF" transform="translate(0,0)"/>
<path d="" fill="#FFFFFF" transform="translate(0,0)"/>
<path d="" fill="#FFFFFF" transform="translate(0,0)"/>
<path d="" fill="#FFFFFF" transform="translate(0,0)"/>
<path d="" fill="#FFFFFF" transform="translate(0,0)"/>
<path d="" fill="#FFFFFF" transform="translate(0,0)"/>
<path d="" fill="#FFFFFF" transform="translate(0,0)"/>
<path d="" fill="#FFFFFF" transform="translate(0,0)"/>
<path d="" fill="#FFFFFF" transform="translate(0,0)"/>
<path d="" fill="#FFFFFF" transform="translate(0,0)"/>
<path d="" fill="#FFFFFF" transform="translate(0,0)"/>
<path d="" fill="#FFFFFF" transform="translate(0,0)"/>
<path d="" fill="#FFFFFF" transform="translate(0,0)"/>
<path d="" fill="#FFFFFF" transform="translate(0,0)"/>
<path d="" fill="#FFFFFF" transform="translate(0,0)"/>
<path d="" fill="#FFFFFF" transform="translate(0,0)"/>
<path d="" fill="#FFFFFF" transform="translate(0,0)"/>
</svg>
