<?xml version="1.0" encoding="UTF-8"?>
<svg version="1.1" xmlns="http://www.w3.org/2000/svg" width="148" height="148">
<path d="M0 0 C48.84 0 97.68 0 148 0 C148 48.84 148 97.68 148 148 C99.16 148 50.32 148 0 148 C0 99.16 0 50.32 0 0 Z " fill="#FDFDFD" transform="translate(0,0)"/>
<path d="M0 0 C9.56727661 7.41185818 16.39951036 18.91842773 18 31 C19.25424305 48.44518467 15.60624435 62.0149097 4.3125 75.6875 C-4.74083669 85.37405684 -16.32077946 90.56548366 -29.54296875 91.34375 C-39.59133325 91.66634165 -48.18336237 90.82763458 -57 85.6875 C-61.1420735 83.4872839 -64.03920396 84.19011701 -68.45703125 85.34765625 C-72.27237716 86.3264009 -76.08434566 86.62106571 -80 87 C-79.56887422 82.90430508 -79.09884305 79.31849426 -77.875 75.375 C-76.54180931 70.23269304 -77.45509282 66.89170897 -79.875 62.3125 C-85.8229008 50.78572875 -87.23756221 37.13173808 -83.375 24.6875 C-78.12744945 11.19379858 -70.02862621 -0.87646499 -56.51953125 -7.15234375 C-37.38408576 -15.09482556 -16.60507868 -12.13448058 0 0 Z " fill="#47C756" transform="translate(107,33)"/>
<path d="M0 0 C1.9896995 0.39013716 3.99019869 0.73202649 6 1 C5.34 1.33 4.68 1.66 4 2 C5.93254772 4.0245738 7.63158688 5.42105792 10 7 C10 7.66 10 8.32 10 9 C11.65 9.33 13.3 9.66 15 10 C15.495 11.485 15.495 11.485 16 13 C16.825 13.825 17.65 14.65 18.5 15.5 C21 18 21 18 22 21 C22.66 21 23.32 21 24 21 C24.495 23.475 24.495 23.475 25 26 C25.66 26 26.32 26 27 26 C27.28875 26.7425 27.5775 27.485 27.875 28.25 C28.89141104 30.88573483 28.89141104 30.88573483 30 32.8125 C32.19535209 37.61483269 33.33031813 42.7149099 33 48 C33.66 48 34.32 48 35 48 C35.05816623 51.41659491 35.09365195 54.83306205 35.125 58.25 C35.14175781 59.21808594 35.15851563 60.18617187 35.17578125 61.18359375 C35.18222656 62.11816406 35.18867188 63.05273438 35.1953125 64.015625 C35.20578613 64.87446289 35.21625977 65.73330078 35.22705078 66.61816406 C34.97981906 69.21170455 34.25059031 70.73925018 33 73 C32.32741333 75.33163378 31.66152556 77.6652039 31 80 C29.45997125 84.60258592 27.85486414 89.02801511 25 93 C24.34 93 23.68 93 23 93 C22.773125 93.721875 22.54625 94.44375 22.3125 95.1875 C20.73080282 98.57685109 18.79885498 100.5424688 16 103 C14.515 103.495 14.515 103.495 13 104 C12.29605388 105.31403276 11.63654342 106.6520257 11 108 C7.54968911 112.87802575 3.96540641 115.89529511 -2 117 C-2 117.66 -2 118.32 -2 119 C-3.11375 119.103125 -4.2275 119.20625 -5.375 119.3125 C-8.57551636 119.69589519 -11.34369303 120.42114943 -14.375 121.5 C-19.38511836 123.10198142 -24.28096055 123.4657184 -29.5 123.75 C-30.30228027 123.79447266 -31.10456055 123.83894531 -31.93115234 123.88476562 C-37.7258308 124.1370846 -37.7258308 124.1370846 -40 123 C-40 122.34 -40 121.68 -40 121 C-41.299375 120.896875 -42.59875 120.79375 -43.9375 120.6875 C-47.34200466 120.32577138 -50.23962424 119.64812439 -53.4375 118.4375 C-58.20171243 116.74077171 -62.98679342 116.11684444 -68 117 C-69.33801342 117.99372927 -70.67136141 118.99377077 -72 120 C-74.2890625 120.44140625 -74.2890625 120.44140625 -76.625 120.5625 C-80.24946451 120.67526962 -80.24946451 120.67526962 -83 123 C-86.05474769 123.55066609 -88.94565349 123.55381008 -92 123 C-94.90980256 119.82566993 -95 118.3475117 -95 114 C-94.01 114 -93.02 114 -92 114 C-91.15545644 110.62182575 -90.89155081 108.32534757 -92 105 C-90.515 104.01 -90.515 104.01 -89 103 C-86.88151026 95.10381097 -87.45205392 88.23781001 -91 81 C-92.08731246 77.82867201 -91.8255657 76.1990671 -91 73 C-91.33 72.01 -91.66 71.02 -92 70 C-92.99 70.99 -92.99 70.99 -94 72 C-94.98945341 62.12068829 -94.8984165 52.86875973 -94 43 C-92.515 42.505 -92.515 42.505 -91 42 C-87.89498962 36.27553642 -87.69727896 30.35714175 -88 24 C-87.01 24.33 -86.02 24.66 -85 25 C-84.34 23.02 -83.68 21.04 -83 19 C-82.34 19 -81.68 19 -81 19 C-81 18.34 -81 17.68 -81 17 C-80.2575 16.71125 -79.515 16.4225 -78.75 16.125 C-76.43260203 15.17697356 -74.22082885 14.15154089 -72 13 C-72.12375 12.2575 -72.2475 11.515 -72.375 10.75 C-72 8 -72 8 -69.125 5.6875 C-66 4 -66 4 -64 4 C-64 3.34 -64 2.68 -64 2 C-61.01234666 0.63757475 -58.01124611 -0.69055703 -55 -2 C-54.35417969 -2.28488281 -53.70835938 -2.56976563 -53.04296875 -2.86328125 C-38.06835746 -9.01075325 -14.05613508 -9.37075672 0 0 Z M-51 10 C-52.010625 10.4125 -53.02125 10.825 -54.0625 11.25 C-65.34067719 17.96891407 -73.9874942 26.79151049 -79 39 C-79.3196875 39.75667969 -79.639375 40.51335938 -79.96875 41.29296875 C-84.7999798 54.6459511 -82.16614125 68.23744822 -77 81 C-76.44570312 81.9075 -75.89140625 82.815 -75.3203125 83.75 C-72.81473455 88.01986065 -74.90070234 92.65817289 -76.0625 97.1875 C-77.15919208 100.99303535 -77.15919208 100.99303535 -77 105 C-72.16107304 104.53171675 -67.74330516 103.93058115 -63.0625 102.625 C-57.91669621 101.52403733 -55.00208335 102.9398933 -50.6171875 105.640625 C-40.07079053 111.11845507 -25.75764885 110.31343129 -14.5625 107.4375 C-0.59371107 102.80812076 9.36166499 93.88240699 15.9375 80.8125 C19.64513231 73.14304783 21.33550623 66.50624064 21.25 58.0625 C21.25773437 57.30259766 21.26546875 56.54269531 21.2734375 55.75976562 C21.24374273 47.06662224 18.79064368 39.76379983 15 32 C14.71382813 31.37996094 14.42765625 30.75992188 14.1328125 30.12109375 C8.87476281 19.72132289 -3.33150867 12.42416864 -13.9375 8.5625 C-25.43972071 5.37049617 -39.96178571 5.08650917 -51 10 Z " fill="#F9FCFA" transform="translate(104,15)"/>
<path d="M0 0 C0.66 0.33 1.32 0.66 2 1 C2.3125 3.6875 2.3125 3.6875 2 7 C0.37446717 8.70680947 -1.29115995 10.37660195 -3 12 C-3 13.32 -3 14.64 -3 16 C-3.33 16.99 -3.66 17.98 -4 19 C-4.11904875 21.01829161 -4.17521712 23.04073771 -4.1875 25.0625 C-4.20876953 26.65771484 -4.20876953 26.65771484 -4.23046875 28.28515625 C-4.28122312 31.14861681 -4.28122312 31.14861681 -2 33 C-1.566875 34.134375 -1.13375 35.26875 -0.6875 36.4375 C1.23350883 40.49296308 2.30558112 40.78554121 6 43 C7.95703125 45.26953125 7.95703125 45.26953125 9.8125 47.8125 C15.9090135 55.6525024 23.01633824 59.95515392 32 64 C32.79148438 64.35835938 33.58296875 64.71671875 34.3984375 65.0859375 C39.66841785 66.93755222 46.79246265 68.26519529 52.109375 66.16796875 C53.87082583 64.97995128 53.87082583 64.97995128 56 63 C56.66 63 57.32 63 58 63 C58.33 59.37 58.66 55.74 59 52 C57.700625 51.38125 56.40125 50.7625 55.0625 50.125 C51.125 48.25 51.125 48.25 50 46 C52.78823655 44.9673198 53.8677274 44.95490707 56.75 45.9375 C57.4925 46.288125 58.235 46.63875 59 47 C59 46.34 59 45.68 59 45 C60.485 45.495 60.485 45.495 62 46 C62.33 45.67 62.66 45.34 63 45 C64.32 45.66 65.64 46.32 67 47 C66.34 47 65.68 47 65 47 C65 47.66 65 48.32 65 49 C65.66 49 66.32 49 67 49 C67.9765625 55.0546875 67.9765625 55.0546875 68 57 C67.01 57.99 67.01 57.99 66 59 C67.98 59.66 69.96 60.32 72 61 C72.11577273 66.32554538 70.59073298 68.95973375 67.125 73 C56.90028146 83.59506268 44.83854344 88.94625522 30.10717773 89.41918945 C20.83407842 89.49122285 13.1083559 88.41470354 5 83.6875 C0.8579265 81.4872839 -2.03920396 82.19011701 -6.45703125 83.34765625 C-10.27237716 84.3264009 -14.08434566 84.62106571 -18 85 C-17.56887422 80.90430508 -17.09884305 77.31849426 -15.875 73.375 C-14.52190699 68.15592696 -15.47412445 64.85004342 -18 60.25 C-20.45371193 55.52038135 -20.84133946 51.27718753 -21 46 C-21.02046387 45.36368652 -21.04092773 44.72737305 -21.06201172 44.07177734 C-21.1221351 41.94360854 -21.15943824 39.81632289 -21.1875 37.6875 C-21.20071289 37.00558594 -21.21392578 36.32367188 -21.22753906 35.62109375 C-21.23343308 31.62888195 -20.75824394 28.59293327 -19 25 C-18.34 25 -17.68 25 -17 25 C-17.33 26.32 -17.66 27.64 -18 29 C-16.68 28.67 -15.36 28.34 -14 28 C-14.020625 27.05125 -14.04125 26.1025 -14.0625 25.125 C-14 22 -14 22 -13 20 C-13.66 20 -14.32 20 -15 20 C-15.33 18.35 -15.66 16.7 -16 15 C-15.236875 14.443125 -14.47375 13.88625 -13.6875 13.3125 C-10.91121882 11.18439518 -10.91121882 11.18439518 -9.5 8.375 C-7.66039789 5.46229667 -6.15249088 5.16144401 -3 4 C-2.67 3.01 -2.34 2.02 -2 1 C-1.34 0.67 -0.68 0.34 0 0 Z " fill="#31B944" transform="translate(45,35)"/>
<path d="M0 0 C1.9896995 0.39013716 3.99019869 0.73202649 6 1 C5.34 1.33 4.68 1.66 4 2 C5.93254772 4.0245738 7.63158688 5.42105792 10 7 C10 7.66 10 8.32 10 9 C11.65 9.33 13.3 9.66 15 10 C15.495 11.485 15.495 11.485 16 13 C16.825 13.825 17.65 14.65 18.5 15.5 C21 18 21 18 22 21 C22.66 21 23.32 21 24 21 C24.495 23.475 24.495 23.475 25 26 C25.66 26 26.32 26 27 26 C27.28875 26.7425 27.5775 27.485 27.875 28.25 C28.89141104 30.88573483 28.89141104 30.88573483 30 32.8125 C32.19535209 37.61483269 33.33031813 42.7149099 33 48 C33.66 48 34.32 48 35 48 C35.05816623 51.41659491 35.09365195 54.83306205 35.125 58.25 C35.14175781 59.21808594 35.15851563 60.18617187 35.17578125 61.18359375 C35.18222656 62.11816406 35.18867188 63.05273438 35.1953125 64.015625 C35.20578613 64.87446289 35.21625977 65.73330078 35.22705078 66.61816406 C34.97981906 69.21170455 34.25059031 70.73925018 33 73 C32.32741333 75.33163378 31.66152556 77.6652039 31 80 C29.45997125 84.60258592 27.85486414 89.02801511 25 93 C24.34 93 23.68 93 23 93 C22.773125 93.721875 22.54625 94.44375 22.3125 95.1875 C20.73080282 98.57685109 18.79885498 100.5424688 16 103 C14.515 103.495 14.515 103.495 13 104 C12.29605388 105.31403276 11.63654342 106.6520257 11 108 C7.54968911 112.87802575 3.96540641 115.89529511 -2 117 C-2 117.66 -2 118.32 -2 119 C-3.11375 119.103125 -4.2275 119.20625 -5.375 119.3125 C-8.57551636 119.69589519 -11.34369303 120.42114943 -14.375 121.5 C-19.38511836 123.10198142 -24.28096055 123.4657184 -29.5 123.75 C-30.30228027 123.79447266 -31.10456055 123.83894531 -31.93115234 123.88476562 C-37.7258308 124.1370846 -37.7258308 124.1370846 -40 123 C-40 122.34 -40 121.68 -40 121 C-41.299375 120.896875 -42.59875 120.79375 -43.9375 120.6875 C-47.34200466 120.32577138 -50.23962424 119.64812439 -53.4375 118.4375 C-58.20171243 116.74077171 -62.98679342 116.11684444 -68 117 C-68.88365234 117.71349609 -68.88365234 117.71349609 -69.78515625 118.44140625 C-72.98059732 120.69004997 -76.33874174 120.89594386 -80.125 121.3125 C-80.85332031 121.41111328 -81.58164063 121.50972656 -82.33203125 121.61132812 C-84.21247364 121.83552135 -86.10763936 121.9272169 -88 122 C-88.66 121.34 -89.32 120.68 -90 120 C-89.07316406 119.72285156 -88.14632812 119.44570312 -87.19140625 119.16015625 C-85.39509766 118.61681641 -85.39509766 118.61681641 -83.5625 118.0625 C-81.77005859 117.52302734 -81.77005859 117.52302734 -79.94140625 116.97265625 C-77.14132455 116.29110858 -77.14132455 116.29110858 -76 115 C-74.11370887 114.59809971 -72.21507944 114.25342647 -70.3125 113.9375 C-68.75982422 113.67259766 -68.75982422 113.67259766 -67.17578125 113.40234375 C-60.70715431 112.58282521 -56.94134889 113.28991103 -51 116 C-48.67891331 116.70812814 -46.34622853 117.38024152 -44 118 C-43.15308594 118.27070313 -43.15308594 118.27070313 -42.2890625 118.546875 C-38.89271746 119.21918903 -35.50970026 119.14385433 -32.0625 119.125 C-31.00772461 119.13080078 -31.00772461 119.13080078 -29.93164062 119.13671875 C-26.14665665 119.12962412 -22.68775376 118.81878449 -19 118 C-16.66698014 117.96175377 -14.33288492 117.95425716 -12 118 C-12 117.34 -12 116.68 -12 116 C-11.40574219 115.79246094 -10.81148438 115.58492188 -10.19921875 115.37109375 C-3.99858474 113.06634798 1.27271293 110.09401796 6.75 106.390625 C9 105 9 105 11 105 C11 104.34 11 103.68 11 103 C11.66 103 12.32 103 13 103 C13.27070312 102.41734375 13.54140625 101.8346875 13.8203125 101.234375 C14.99428203 99.01083007 16.30979861 97.21258413 17.875 95.25 C20.85180459 91.36848029 22.94259988 87.43132333 25 83 C25.66 83 26.32 83 27 83 C30.87563075 67.42826932 32.71718803 53.66572323 28 38 C26.54035572 36.09574 26.54035572 36.09574 25 35 C24.525625 35.474375 24.05125 35.94875 23.5625 36.4375 C22.70833333 37.29166667 21.85416667 38.14583333 21 39 C21.32075666 40.66913272 21.65646104 42.33540699 22 44 C22.07700286 45.69257245 22.10805067 47.38773999 22.09765625 49.08203125 C22.09282227 50.47905273 22.09282227 50.47905273 22.08789062 51.90429688 C22.07532227 53.34385742 22.07532227 53.34385742 22.0625 54.8125 C22.05798828 55.79154297 22.05347656 56.77058594 22.04882812 57.77929688 C22.03708684 60.18626111 22.02066419 62.59309857 22 65 C21.67 65 21.34 65 21 65 C20.95101562 63.9378125 20.90203125 62.875625 20.8515625 61.78125 C20.18702959 48.68422026 17.89326144 38.37388137 11 27 C11 26.34 11 25.68 11 25 C9.515 24.505 9.515 24.505 8 24 C7.34 23.29875 6.68 22.5975 6 21.875 C-3.2501392 12.37708922 -15.40870775 7.95681343 -28.4387207 7.58178711 C-37.03130881 7.51862395 -44.8167994 8.20573638 -53 11 C-53 10.34 -53 9.68 -53 9 C-52.21625 8.731875 -51.4325 8.46375 -50.625 8.1875 C-47.71885077 7.15185568 -47.71885077 7.15185568 -46 4 C-43.5 3.1875 -43.5 3.1875 -41 3 C-40.34 3.66 -39.68 4.32 -39 5 C-38.30003906 4.66355469 -37.60007813 4.32710937 -36.87890625 3.98046875 C-33.58188185 2.85760155 -31.38498951 2.95075331 -27.9375 3.3125 C-26.40416016 3.46138672 -26.40416016 3.46138672 -24.83984375 3.61328125 C-22.48594438 3.93382601 -20.28337092 4.35934197 -18 5 C-18 3.68 -18 2.36 -18 1 C-14.535 0.505 -14.535 0.505 -11 0 C-15.26545655 -1.99943276 -19.34578244 -2.69297515 -24 -3 C-25.15886719 -3.07734375 -26.31773438 -3.1546875 -27.51171875 -3.234375 C-43.46814792 -3.7969915 -57.5564821 0.8189399 -70 11 C-70.66 11 -71.32 11 -72 11 C-71.8125 9.1875 -71.8125 9.1875 -71 7 C-66.82142857 4 -66.82142857 4 -64 4 C-64 3.34 -64 2.68 -64 2 C-61.01234666 0.63757475 -58.01124611 -0.69055703 -55 -2 C-54.35417969 -2.28488281 -53.70835938 -2.56976563 -53.04296875 -2.86328125 C-38.06835746 -9.01075325 -14.05613508 -9.37075672 0 0 Z " fill="#F7FBF8" transform="translate(104,15)"/>
<path d="M0 0 C3.29988605 5.94223024 6.11700681 11.09659827 6 18 C4 20.75 4 20.75 2 23 C2.55192193 28.28741213 6.46256613 32.31414233 10 36 C16.24924535 40.92846414 16.24924535 40.92846414 23.66015625 43.40234375 C26.07731862 43.21301376 26.07731862 43.21301376 27.58203125 41.46875 C27.98808594 40.8190625 28.39414063 40.169375 28.8125 39.5 C29.44091797 38.52546875 29.44091797 38.52546875 30.08203125 37.53125 C30.38496094 37.0259375 30.68789062 36.520625 31 36 C35.59808129 36.53894425 38.86784369 37.76571528 42.875 40.0625 C43.84179688 40.61035156 44.80859375 41.15820312 45.8046875 41.72265625 C46.52914062 42.14417969 47.25359375 42.56570312 48 43 C47.88430535 47.82762215 47.74519341 51.05340296 44.6875 54.9375 C39.08800648 59.23478572 35.49320776 59.27466708 28.51953125 58.6015625 C16.9662281 56.62685808 7.85609239 50.44529932 0 42 C-0.60585938 41.38769531 -1.21171875 40.77539062 -1.8359375 40.14453125 C-8.40639064 33.23422709 -15.24633066 24.57577835 -15.6875 14.6875 C-15.31499488 10.02738487 -13.93078781 5.69062168 -11 2 C-7.34498665 -0.32183225 -4.27814642 -0.16454409 0 0 Z " fill="#F7FCF8" transform="translate(57,44)"/>
<path d="M0 0 C4.19360449 0.67097672 7.40334352 2.8558394 11 5 C11 5.66 11 6.32 11 7 C12.65 7.33 14.3 7.66 16 8 C16.495 9.485 16.495 9.485 17 11 C17.825 11.825 18.65 12.65 19.5 13.5 C22 16 22 16 23 19 C23.66 19 24.32 19 25 19 C25.495 21.475 25.495 21.475 26 24 C26.66 24 27.32 24 28 24 C28.28875 24.7425 28.5775 25.485 28.875 26.25 C29.89141104 28.88573483 29.89141104 28.88573483 31 30.8125 C33.19535209 35.61483269 34.33031813 40.7149099 34 46 C34.66 46 35.32 46 36 46 C36.05816623 49.41659491 36.09365195 52.83306205 36.125 56.25 C36.14175781 57.21808594 36.15851563 58.18617187 36.17578125 59.18359375 C36.18222656 60.11816406 36.18867188 61.05273438 36.1953125 62.015625 C36.20578613 62.87446289 36.21625977 63.73330078 36.22705078 64.61816406 C35.97981906 67.21170455 35.25059031 68.73925018 34 71 C33.32741333 73.33163378 32.66152556 75.6652039 32 78 C30.45997125 82.60258592 28.85486414 87.02801511 26 91 C25.34 91 24.68 91 24 91 C23.773125 91.721875 23.54625 92.44375 23.3125 93.1875 C21.73080282 96.57685109 19.79885498 98.5424688 17 101 C15.515 101.495 15.515 101.495 14 102 C13.29605388 103.31403276 12.63654342 104.6520257 12 106 C8.54968911 110.87802575 4.96540641 113.89529511 -1 115 C-1 115.66 -1 116.32 -1 117 C-2.11375 117.103125 -3.2275 117.20625 -4.375 117.3125 C-7.57551636 117.69589519 -10.34369303 118.42114943 -13.375 119.5 C-18.38511836 121.10198142 -23.28096055 121.4657184 -28.5 121.75 C-29.30228027 121.79447266 -30.10456055 121.83894531 -30.93115234 121.88476562 C-36.7258308 122.1370846 -36.7258308 122.1370846 -39 121 C-39 120.34 -39 119.68 -39 119 C-40.299375 118.896875 -41.59875 118.79375 -42.9375 118.6875 C-46.34200466 118.32577138 -49.23962424 117.64812439 -52.4375 116.4375 C-57.20171243 114.74077171 -61.98679342 114.11684444 -67 115 C-67.88365234 115.71349609 -67.88365234 115.71349609 -68.78515625 116.44140625 C-71.98059732 118.69004997 -75.33874174 118.89594386 -79.125 119.3125 C-79.85332031 119.41111328 -80.58164063 119.50972656 -81.33203125 119.61132812 C-83.21247364 119.83552135 -85.10763936 119.9272169 -87 120 C-87.66 119.34 -88.32 118.68 -89 118 C-88.07316406 117.72285156 -87.14632812 117.44570312 -86.19140625 117.16015625 C-84.39509766 116.61681641 -84.39509766 116.61681641 -82.5625 116.0625 C-80.77005859 115.52302734 -80.77005859 115.52302734 -78.94140625 114.97265625 C-76.14132455 114.29110858 -76.14132455 114.29110858 -75 113 C-73.11370887 112.59809971 -71.21507944 112.25342647 -69.3125 111.9375 C-67.75982422 111.67259766 -67.75982422 111.67259766 -66.17578125 111.40234375 C-59.70715431 110.58282521 -55.94134889 111.28991103 -50 114 C-47.67891331 114.70812814 -45.34622853 115.38024152 -43 116 C-42.15308594 116.27070313 -42.15308594 116.27070313 -41.2890625 116.546875 C-37.89271746 117.21918903 -34.50970026 117.14385433 -31.0625 117.125 C-30.00772461 117.13080078 -30.00772461 117.13080078 -28.93164062 117.13671875 C-25.14665665 117.12962412 -21.68775376 116.81878449 -18 116 C-15.66698014 115.96175377 -13.33288492 115.95425716 -11 116 C-11 115.34 -11 114.68 -11 114 C-10.40574219 113.79246094 -9.81148438 113.58492188 -9.19921875 113.37109375 C-2.99858474 111.06634798 2.27271293 108.09401796 7.75 104.390625 C10 103 10 103 12 103 C12 102.34 12 101.68 12 101 C12.66 101 13.32 101 14 101 C14.27070312 100.41734375 14.54140625 99.8346875 14.8203125 99.234375 C15.99428203 97.01083007 17.30979861 95.21258413 18.875 93.25 C21.85180459 89.36848029 23.94259988 85.43132333 26 81 C26.66 81 27.32 81 28 81 C32.5719403 62.63059702 34.63296456 45.27290198 25 28 C25 27.01 25 26.02 25 25 C24.34 25 23.68 25 23 25 C21.66796875 22.953125 21.66796875 22.953125 20.1875 20.25 C17.88891933 16.25148621 15.80794712 13.68796267 12 11 C12 10.34 12 9.68 12 9 C11.34 9 10.68 9 10 9 C10 8.34 10 7.68 10 7 C8.9171875 6.6596875 8.9171875 6.6596875 7.8125 6.3125 C4.46790687 4.75168987 2.48396041 2.6968713 0 0 Z " fill="#E4E4E4" transform="translate(103,17)"/>
<path d="M0 0 C5.71362158 0.39404287 9.62231608 0.95064237 14 5 C14.375 8.25 14.375 8.25 14 11 C13.34 11 12.68 11 12 11 C11.67 11.99 11.34 12.98 11 14 C4.21756443 17.32955928 -4.1171442 18.37924823 -11.40625 16.3203125 C-13.29962177 15.62029829 -15.15535044 14.81984425 -17 14 C-17 13.01 -17 12.02 -17 11 C-17.66 11 -18.32 11 -19 11 C-19.6875 9.1875 -19.6875 9.1875 -20 7 C-18.890625 5.3671875 -18.890625 5.3671875 -17 4 C-14.22265625 3.77734375 -14.22265625 3.77734375 -11.0625 3.9375 C-7.09123229 4.12942 -4.36830141 4.25855941 -1 2 C-0.67 1.34 -0.34 0.68 0 0 Z " fill="#FBFCFB" transform="translate(89,84)"/>
<path d="M0 0 C2.74403055 2.06609359 5.05943738 4.17283499 7.32421875 6.75 C4.68421875 6.75 2.04421875 6.75 -0.67578125 6.75 C-1.17078125 4.275 -1.17078125 4.275 -1.67578125 1.75 C-3.27781592 1.38631108 -4.88252328 1.03438048 -6.48828125 0.6875 C-7.38160156 0.49027344 -8.27492187 0.29304688 -9.1953125 0.08984375 C-11.80208904 -0.45349463 -11.80208904 -0.45349463 -14.67578125 0.75 C-15.33578125 0.42 -15.99578125 0.09 -16.67578125 -0.25 C-16.67578125 -1.9 -16.67578125 -3.55 -16.67578125 -5.25 C-21.62993507 -7.2144433 -25.87030375 -7.5856785 -31.11328125 -7.5625 C-31.83837891 -7.57861328 -32.56347656 -7.59472656 -33.31054688 -7.61132812 C-38.47290194 -7.61596636 -42.10750679 -6.69349564 -46.67578125 -4.25 C-47.7186788 -2.18109581 -47.7186788 -2.18109581 -47.67578125 -0.25 C-48.74828125 -0.12625 -49.82078125 -0.0025 -50.92578125 0.125 C-54.0544174 0.64643936 -56.01058549 1.15088254 -58.67578125 2.75 C-59.00578125 2.42 -59.33578125 2.09 -59.67578125 1.75 C-60.45953125 2.265625 -61.24328125 2.78125 -62.05078125 3.3125 C-62.91703125 3.786875 -63.78328125 4.26125 -64.67578125 4.75 C-65.33578125 4.42 -65.99578125 4.09 -66.67578125 3.75 C-47.61409691 -12.95939138 -21.14988361 -14.32634452 0 0 Z " fill="#64CA6F" transform="translate(104.67578125,31.25)"/>
<path d="M0 0 C1.9896995 0.39013716 3.99019869 0.73202649 6 1 C5.34 1.33 4.68 1.66 4 2 C3.67 2.66 3.34 3.32 3 4 C-1.02646222 4 -4.41012198 2.79493901 -8 1 C-8 0.34 -8 -0.32 -8 -1 C-8.78375 -0.95875 -9.5675 -0.9175 -10.375 -0.875 C-13.34198896 -0.97730996 -15.53690886 -1.31924165 -18.375 -2 C-34.17000121 -5.23939396 -49.4200225 -2.53391773 -63.234375 5.796875 C-65.5936587 7.4045285 -67.79153488 9.19307399 -70 11 C-70.66 11 -71.32 11 -72 11 C-71.8125 9.1875 -71.8125 9.1875 -71 7 C-66.82142857 4 -66.82142857 4 -64 4 C-64 3.34 -64 2.68 -64 2 C-61.01234666 0.63757475 -58.01124611 -0.69055703 -55 -2 C-54.35417969 -2.28488281 -53.70835938 -2.56976563 -53.04296875 -2.86328125 C-38.06835746 -9.01075325 -14.05613508 -9.37075672 0 0 Z " fill="#EDEDED" transform="translate(104,15)"/>
<path d="M0 0 C0.75 1.5625 0.75 1.5625 1 4 C-0.7903555 7.71332992 -2.30348007 10.32282784 -5.25 13.1875 C-7.46306301 15.05969172 -7.46306301 15.05969172 -7 19 C-6.34 19 -5.68 19 -5 19 C-5 21.97 -5 24.94 -5 28 C-6.65 28 -8.3 28 -10 28 C-9.67 26.68 -9.34 25.36 -9 24 C-9.66 24 -10.32 24 -11 24 C-12.05355209 28.29782361 -12.14966619 32.47619661 -12.125 36.875 C-12.12886719 37.55691406 -12.13273437 38.23882812 -12.13671875 38.94140625 C-12.12824419 43.39055248 -11.72218388 47.60958055 -11 52 C-11.66 52 -12.32 52 -13 52 C-17.46347673 38.60956982 -15.50457394 25.50279982 -9.57421875 12.9921875 C-6.94836462 7.9033229 -4.36803401 3.72567607 0 0 Z " fill="#4FC05E" transform="translate(37,36)"/>
<path d="M0 0 C4.59808129 0.53894425 7.86784369 1.76571528 11.875 4.0625 C12.84179688 4.61035156 13.80859375 5.15820312 14.8046875 5.72265625 C15.89136719 6.35494141 15.89136719 6.35494141 17 7 C16.88430535 11.82762215 16.74519341 15.05340296 13.6875 18.9375 C8.8758247 22.63018105 6.38274032 23.23827403 0.25 22.625 C-0.92046875 22.51414062 -2.0909375 22.40328125 -3.296875 22.2890625 C-4.18890625 22.19367188 -5.0809375 22.09828125 -6 22 C-6 21.67 -6 21.34 -6 21 C-4.43883181 20.66048381 -2.87598662 20.32867456 -1.3125 20 C-0.44238281 19.814375 0.42773438 19.62875 1.32421875 19.4375 C3.93712964 19.01027953 6.35813038 18.92383799 9 19 C9.33 18.34 9.66 17.68 10 17 C10.66 17 11.32 17 12 17 C12.33 16.34 12.66 15.68 13 15 C13.66 15 14.32 15 15 15 C14.89207179 12.0957107 14.89207179 12.0957107 14 9 C10.22041468 5.79307913 5.73722243 5.04379477 1 4 C0.67 4.99 0.34 5.98 0 7 C-3.45151575 9.52226151 -6.85626097 9.29598136 -11 9 C-13.4375 8 -13.4375 8 -15 7 C-15 6.34 -15 5.68 -15 5 C-13.9171875 5.495 -13.9171875 5.495 -12.8125 6 C-8.96679445 7.3991382 -8.96679445 7.3991382 -5 7 C-3.03611807 4.84242012 -1.49755326 2.49804629 0 0 Z " fill="#DCF9E0" transform="translate(88,80)"/>
<path d="M0 0 C1.67889021 -0.63525576 3.34416775 -1.30686092 5 -2 C8.3125 -2.125 8.3125 -2.125 11 -2 C11 -1.67 11 -1.34 11 -1 C15.62 -0.01 20.24 0.98 25 2 C25 2.66 25 3.32 25 4 C24.04480469 3.84015625 23.08960938 3.6803125 22.10546875 3.515625 C10.10921091 1.81607981 -2.49324207 2.07086315 -14 6 C-14 5.34 -14 4.68 -14 4 C-13.21625 3.731875 -12.4325 3.46375 -11.625 3.1875 C-8.71885077 2.15185568 -8.71885077 2.15185568 -7 -1 C-3.59070279 -2.42970528 -3.25725872 -2.17150581 0 0 Z " fill="#D9F7DD" transform="translate(65,20)"/>
<path d="M0 0 C0 -0.66 0 -1.32 0 -2 C0.99 -1.67 1.98 -1.34 3 -1 C3.33 -1.33 3.66 -1.66 4 -2 C5.32 -1.34 6.64 -0.68 8 0 C7.34 0 6.68 0 6 0 C5.67 1.32 5.34 2.64 5 4 C4.34 4 3.68 4 3 4 C2.96261719 4.74765625 2.92523438 5.4953125 2.88671875 6.265625 C2.82097656 7.25046875 2.75523438 8.2353125 2.6875 9.25 C2.62949219 10.22453125 2.57148437 11.1990625 2.51171875 12.203125 C1.95363476 15.25341611 1.03630224 16.70711276 -1 19 C-1.99 18.67 -2.98 18.34 -4 18 C-3.67 17.34 -3.34 16.68 -3 16 C-2.34 16 -1.68 16 -1 16 C-0.67 12.37 -0.34 8.74 0 5 C-1.299375 4.38125 -2.59875 3.7625 -3.9375 3.125 C-7.875 1.25 -7.875 1.25 -9 -1 C-5.23375329 -2.25541557 -3.62811066 -1.37061958 0 0 Z " fill="#3CB64E" transform="translate(104,82)"/>
<path d="M0 0 C2.58427956 2.58427956 2.31130811 4.43860239 2.37963867 7.96850586 C2.37810791 8.76264893 2.37657715 9.55679199 2.375 10.375 C2.37411377 11.18267822 2.37322754 11.99035645 2.37231445 12.82250977 C2.23024491 20.07382597 1.4124036 28.21296498 -3.63671875 33.81640625 C-4.31154297 34.40228516 -4.31154297 34.40228516 -5 35 C-5 33.02 -5 31.04 -5 29 C-4.34 29 -3.68 29 -3 29 C-2.63530576 25.73025053 -2.28506661 22.45911086 -1.9375 19.1875 C-1.83373047 18.25873047 -1.72996094 17.32996094 -1.62304688 16.37304688 C-1.52958984 15.48037109 -1.43613281 14.58769531 -1.33984375 13.66796875 C-1.25081787 12.84578857 -1.16179199 12.0236084 -1.07006836 11.17651367 C-0.86826985 8.81754193 -0.86826985 8.81754193 -2 6 C-1.0625 2.8125 -1.0625 2.8125 0 0 Z " fill="#47BA56" transform="translate(123,62)"/>
<path d="M0 0 C0 0.66 0 1.32 0 2 C-0.61875 2.061875 -1.2375 2.12375 -1.875 2.1875 C-4.24379837 2.81891092 -4.24379837 2.81891092 -5.1875 5.375 C-5.455625 6.24125 -5.72375 7.1075 -6 8 C-6.33 8.99 -6.66 9.98 -7 11 C-8.29106555 19.6125512 -5.24541223 25.64633952 -1 33 C-2.890625 32.72265625 -2.890625 32.72265625 -5 32 C-6.75 28.4375 -6.75 28.4375 -8 25 C-8.66 25 -9.32 25 -10 25 C-10.05428973 22.77110504 -10.09292338 20.54182529 -10.125 18.3125 C-10.15980469 16.45044922 -10.15980469 16.45044922 -10.1953125 14.55078125 C-10.01032021 11.18762143 -9.45767895 9.0014413 -8 6 C-8.66 5.67 -9.32 5.34 -10 5 C-4.03225806 0 -4.03225806 0 0 0 Z " fill="#52C164" transform="translate(50,43)"/>
<path d="M0 0 C0.28875 0.598125 0.5775 1.19625 0.875 1.8125 C2.36930346 4.71809007 3.38915877 6.66981555 6.3125 8.25 C9.95107676 10.6193058 11.61421776 13.38724403 14 17 C13.34 17.99 12.68 18.98 12 20 C10.125 19.875 10.125 19.875 8 19 C7.33333333 17 6.66666667 15 6 13 C3.99427359 12.18553891 3.99427359 12.18553891 2 12 C1.67 11.34 1.34 10.68 1 10 C0.01 10.495 0.01 10.495 -1 11 C-1.02688151 9.35425434 -1.04634123 7.70838587 -1.0625 6.0625 C-1.07410156 5.14597656 -1.08570313 4.22945313 -1.09765625 3.28515625 C-1 1 -1 1 0 0 Z " fill="#44BC53" transform="translate(42,68)"/>
<path d="M0 0 C1.80159109 3.53883965 3.4061709 7.14532736 5 10.78125 C5.96717875 13.00462584 5.96717875 13.00462584 7.140625 15.078125 C9.33409705 19.98352614 6.32013992 26.98346829 5 32 C4.67 32 4.34 32 4 32 C3.78244334 26.5610835 3.89571616 22.12919186 6 17 C5.34 17 4.68 17 4 17 C4 18.65 4 20.3 4 22 C1.92828041 20.31333824 1.0604837 19.51411144 0.7421875 16.80859375 C0.78601563 16.02613281 0.82984375 15.24367188 0.875 14.4375 C1.10485811 11.08842438 1.10485811 11.08842438 0 8 C-0.13415472 5.3276379 -0.04318541 2.67749512 0 0 Z " fill="#DBF5E0" transform="translate(23,84)"/>
<path d="M0 0 C0.66 1.32 1.32 2.64 2 4 C-2.52084209 8.49335977 -5.54972485 10.73672346 -12 11 C-12.33 8.69 -12.66 6.38 -13 4 C-11.783125 3.896875 -10.56625 3.79375 -9.3125 3.6875 C-5.58930552 3.23780688 -3.08337005 2.21617222 0 0 Z " fill="#26B03E" transform="translate(101,110)"/>
<path d="M0 0 C-0.01160156 0.75023437 -0.02320313 1.50046875 -0.03515625 2.2734375 C-0.08804911 8.2729991 0.09886926 14.08766915 0.87890625 20.0390625 C1 22 1 22 0 24 C-0.66 24 -1.32 24 -2 24 C-2.03867187 23.07380859 -2.03867187 23.07380859 -2.078125 22.12890625 C-2.50948974 15.68784636 -4.03067892 10.71766942 -7 5 C-6.34 5 -5.68 5 -5 5 C-5.66 3.68 -6.32 2.36 -7 1 C-4 0 -4 0 0 0 Z " fill="#52C763" transform="translate(64,40)"/>
<path d="M0 0 C0.9295345 2.78860349 0.99247512 5.16300041 0.875 8.0625 C0.587144 11.85337561 0.587144 11.85337561 2.375 13.625 C2.91125 14.07875 3.4475 14.5325 4 15 C5.1875 18.1875 5.1875 18.1875 6 21 C7.65 21.33 9.3 21.66 11 22 C11.144375 22.886875 11.28875 23.77375 11.4375 24.6875 C11.91019978 27.47117646 12.43070185 30.23483757 13 33 C8.4531487 28.85434146 5.2398547 24.21355929 2 19 C1.38125 18.030625 0.7625 17.06125 0.125 16.0625 C-1.79578822 10.83368763 -1.75870333 5.27611 0 0 Z " fill="#DFF7E3" transform="translate(43,51)"/>
<path d="M0 0 C0.08708752 4.2498709 0.14042181 8.49951239 0.1875 12.75 C0.22520508 14.55984375 0.22520508 14.55984375 0.26367188 16.40625 C0.27333984 17.56640625 0.28300781 18.7265625 0.29296875 19.921875 C0.3086792 20.99018555 0.32438965 22.05849609 0.34057617 23.15917969 C-0.03970106 26.33115522 -0.87106908 27.67217242 -3 30 C-3.96874862 20.32741759 -4.50167611 10.64990129 -3 1 C-1 0 -1 0 0 0 Z " fill="#EDEDED" transform="translate(13,57)"/>
<path d="M0 0 C0.75 1.5625 0.75 1.5625 1 4 C-1.96259352 10.25436409 -1.96259352 10.25436409 -5 12.4375 C-8.15007508 14.89849616 -9.39489425 18.40558766 -11 22 C-11.6953125 20.40234375 -11.6953125 20.40234375 -12 18 C-10.7421875 14.94140625 -10.7421875 14.94140625 -8.875 11.5625 C-8.27429688 10.45003906 -7.67359375 9.33757813 -7.0546875 8.19140625 C-4.99687511 4.99514631 -2.78202389 2.57505672 0 0 Z " fill="#62C86F" transform="translate(37,36)"/>
<path d="M0 0 C1.32 0 2.64 0 4 0 C3.54287762 1.54202616 3.08423653 3.08360214 2.625 4.625 C2.36976562 5.48351563 2.11453125 6.34203125 1.8515625 7.2265625 C1 10 1 10 -0.09375 12.6875 C-1.35138169 17.28436067 -1.21289807 21.63526542 -1.125 26.375 C-1.11146484 27.76525391 -1.11146484 27.76525391 -1.09765625 29.18359375 C-1.07422937 31.45600077 -1.04142748 33.7278618 -1 36 C-3.03841117 34.14067405 -3.94417309 32.63754043 -4.18603516 29.87548828 C-4.14201667 27.26079027 -3.99788174 24.67095217 -3.8125 22.0625 C-3.76802734 21.16853516 -3.72355469 20.27457031 -3.67773438 19.35351562 C-3.40541068 14.8248735 -2.94652926 11.15464743 -1 7 C-0.6186926 4.67402489 -0.27539746 2.34087842 0 0 Z " fill="#DBF9DF" transform="translate(24,48)"/>
<path d="M0 0 C0.99 0 1.98 0 3 0 C1.66420283 4.00739151 -0.31502829 6.95966543 -2.87890625 10.25390625 C-4.10063489 12.15673796 -4.57014592 13.79277175 -5 16 C-5.66 16 -6.32 16 -7 16 C-7 13.03 -7 10.06 -7 7 C-6.01 7.33 -5.02 7.66 -4 8 C-3.34 6.02 -2.68 4.04 -2 2 C-1.34 2 -0.68 2 0 2 C0 1.34 0 0.68 0 0 Z " fill="#F1EEF0" transform="translate(23,32)"/>
<path d="M0 0 C0.99 0.33 1.98 0.66 3 1 C3 2.65 3 4.3 3 6 C1.74316406 5.49339844 1.74316406 5.49339844 0.4609375 4.9765625 C-3.4479744 3.87359639 -6.34563966 3.99487167 -10.375 4.375 C-12.24285156 4.54128906 -12.24285156 4.54128906 -14.1484375 4.7109375 C-15.08945312 4.80632812 -16.03046875 4.90171875 -17 5 C-15.390625 2.984375 -15.390625 2.984375 -13 1 C-9.984375 0.828125 -9.984375 0.828125 -6.75 1.25 C-5.67234375 1.37890625 -4.5946875 1.5078125 -3.484375 1.640625 C-2.25460938 1.81851563 -2.25460938 1.81851563 -1 2 C-0.67 1.34 -0.34 0.68 0 0 Z " fill="#20AC36" transform="translate(53,112)"/>
<path d="M0 0 C0.99 0 1.98 0 3 0 C6.07312706 5.92674505 7.57737645 10.30243318 7 17 C6.67 17.99 6.34 18.98 6 20 C5.34 20 4.68 20 4 20 C4.05220703 19.14728516 4.05220703 19.14728516 4.10546875 18.27734375 C4.30427615 12.60659947 3.4888227 9.07719831 1 4 C0.62691369 2.67723944 0.26953585 1.34767923 0 0 Z " fill="#EAE9EA" transform="translate(12,92)"/>
<path d="M0 0 C0.33 2.64 0.66 5.28 1 8 C0.01 8.495 0.01 8.495 -1 9 C-1.33 9.99 -1.66 10.98 -2 12 C-3.32 12 -4.64 12 -6 12 C-5.9129995 10.37399059 -5.8048219 8.74910322 -5.6875 7.125 C-5.62949219 6.22007813 -5.57148437 5.31515625 -5.51171875 4.3828125 C-4.81887225 1.15658073 -3.34638587 0 0 0 Z " fill="#31BD49" transform="translate(112,84)"/>
<path d="M0 0 C6.04499985 0.71117645 10.61772364 2.30886182 16 5 C16.99 5.33 17.98 5.66 19 6 C19 6.66 19 7.32 19 8 C12.16981515 7.62054529 6.81609264 5.63930943 1 2 C0.67 1.34 0.34 0.68 0 0 Z " fill="#37AB4A" transform="translate(45,115)"/>
<path d="M0 0 C0.86375896 1.61992165 1.71575854 3.24611861 2.5625 4.875 C3.03816406 5.77992187 3.51382813 6.68484375 4.00390625 7.6171875 C4.33261719 8.40351562 4.66132812 9.18984375 5 10 C4.67 10.66 4.34 11.32 4 12 C0.76743757 10.38371879 0.32663296 7.23006285 -1 4 C-1.98267859 2.79438816 -1.98267859 2.79438816 -3.84765625 2.90234375 C-5.8984375 2.93489583 -7.94921875 2.96744792 -10 3 C-10.33 4.32 -10.66 5.64 -11 7 C-11.66 6.67 -12.32 6.34 -13 6 C-12.06896676 3.67241689 -11.34617872 2.25642868 -9.3125 0.75 C-6.16454282 -0.27095909 -3.28456632 -0.12632947 0 0 Z " fill="#D0F6D1" transform="translate(57,44)"/>
<path d="M0 0 C2.3431213 0.25561323 4.67843403 0.59270772 7 1 C7.33 1.66 7.66 2.32 8 3 C6.9275 3.12375 5.855 3.2475 4.75 3.375 C1.62136385 3.89643936 -0.33480424 4.40088254 -3 6 C-3.33 5.67 -3.66 5.34 -4 5 C-4.78375 5.515625 -5.5675 6.03125 -6.375 6.5625 C-7.24125 7.036875 -8.1075 7.51125 -9 8 C-9.66 7.67 -10.32 7.34 -11 7 C-4.85714286 1.42857143 -4.85714286 1.42857143 0 1 C0 0.67 0 0.34 0 0 Z " fill="#62CE6F" transform="translate(49,28)"/>
<path d="M0 0 C0.99 0.33 1.98 0.66 3 1 C2 4 2 4 0.359375 5.2109375 C-2.84041867 6.28106717 -5.40549916 5.95945008 -8.75 5.625 C-9.92046875 5.51414062 -11.0909375 5.40328125 -12.296875 5.2890625 C-13.63492188 5.14597656 -13.63492188 5.14597656 -15 5 C-15 4.67 -15 4.34 -15 4 C-13.43883181 3.66048381 -11.87598662 3.32867456 -10.3125 3 C-9.44238281 2.814375 -8.57226562 2.62875 -7.67578125 2.4375 C-5.06287036 2.01027953 -2.64186962 1.92383799 0 2 C0 1.34 0 0.68 0 0 Z " fill="#CCF3D4" transform="translate(97,97)"/>
<path d="M0 0 C0.8971875 0.309375 0.8971875 0.309375 1.8125 0.625 C1.23665568 3.01064077 0.59022405 5.29182784 -0.1875 7.625 C-3.29948065 6.12663895 -6.2409615 4.42566242 -9.1875 2.625 C-8.589375 2.50125 -7.99125 2.3775 -7.375 2.25 C-4.41425756 1.40407359 -3.14374593 -0.53892787 0 0 Z " fill="#36BB45" transform="translate(82.1875,80.375)"/>
<path d="M0 0 C0.33 0.66 0.66 1.32 1 2 C1.66 2 2.32 2 3 2 C3.33 3.32 3.66 4.64 4 6 C5.65 6.33 7.3 6.66 9 7 C9.33 7.99 9.66 8.98 10 10 C10.66 10 11.32 10 12 10 C12 10.66 12 11.32 12 12 C8.21908383 10.65686815 5.34348084 8.97035316 2.1875 6.5 C1.39730469 5.8915625 0.60710938 5.283125 -0.20703125 4.65625 C-0.79871094 4.1096875 -1.39039063 3.563125 -2 3 C-2 2.34 -2 1.68 -2 1 C-1.34 0.67 -0.68 0.34 0 0 Z " fill="#D3F4D9" transform="translate(60,85)"/>
<path d="M0 0 C0.33 0 0.66 0 1 0 C1 3.3 1 6.6 1 10 C1.66 9.67 2.32 9.34 3 9 C5.6723621 8.86584528 8.32250488 8.95681459 11 9 C8.03821227 10.67110042 5.62928808 11.32682752 2.25 11.625 C1.45078125 11.69976562 0.6515625 11.77453125 -0.171875 11.8515625 C-1.07679687 11.92503906 -1.07679687 11.92503906 -2 12 C-1 3.42857143 -1 3.42857143 0 0 Z " fill="#3BA950" transform="translate(29,108)"/>
<path d="M0 0 C0.66 0 1.32 0 2 0 C2 1.98 2 3.96 2 6 C2.66 6.33 3.32 6.66 4 7 C3.01 8.32 2.02 9.64 1 11 C-1.0625 8.75 -1.0625 8.75 -3 6 C-2.82560493 2.94808622 -2.18741485 2.18741485 0 0 Z " fill="#4DBF5D" transform="translate(61,64)"/>
<path d="M0 0 C1.5 1.375 1.5 1.375 3 3 C3 3.66 3 4.32 3 5 C3.66 5.33 4.32 5.66 5 6 C2.69 7.65 0.38 9.3 -2 11 C-2 10.01 -2 9.02 -2 8 C-1.34 8 -0.68 8 0 8 C-0.33 6.68 -0.66 5.36 -1 4 C-1.66 4 -2.32 4 -3 4 C-2.67 3.01 -2.34 2.02 -2 1 C-1.34 0.67 -0.68 0.34 0 0 Z " fill="#36B24B" transform="translate(103,106)"/>
<path d="M0 0 C2 2 2 2 2 4 C0.68 4.33 -0.64 4.66 -2 5 C-2.33 6.32 -2.66 7.64 -3 9 C-4.65 9 -6.3 9 -8 9 C-7.62005832 6.24542282 -7.1926367 5.17979426 -5.125 3.25 C-3 2 -3 2 0 2 C0 1.34 0 0.68 0 0 Z " fill="#53CD61" transform="translate(45,31)"/>
<path d="M0 0 C0.70125 0.2475 1.4025 0.495 2.125 0.75 C-1.96233141 4.19868587 -6.31305907 6.98793154 -10.875 9.75 C-9.97113552 5.77299628 -9.18845605 4.02166191 -6.0625 1.3125 C-2.875 -0.25 -2.875 -0.25 0 0 Z " fill="#E4F8E5" transform="translate(48.875,25.25)"/>
<path d="M0 0 C1.24918353 4.60016793 1.80916933 9.47707668 0 14 C-1.9375 16.25 -1.9375 16.25 -4 18 C-4.66 18 -5.32 18 -6 18 C-4 12 -2 6 0 0 Z " fill="#D8F7DC" transform="translate(124,82)"/>
<path d="M0 0 C0.33 0.66 0.66 1.32 1 2 C-1.64 2 -4.28 2 -7 2 C-7 3.65 -7 5.3 -7 7 C-7.66 7 -8.32 7 -9 7 C-9.12375 7.639375 -9.2475 8.27875 -9.375 8.9375 C-9.58125 9.618125 -9.7875 10.29875 -10 11 C-10.99 11.495 -10.99 11.495 -12 12 C-11.67 9.69 -11.34 7.38 -11 5 C-10.34 5 -9.68 5 -9 5 C-8.896875 4.360625 -8.79375 3.72125 -8.6875 3.0625 C-8.460625 2.381875 -8.23375 1.70125 -8 1 C-5.07175348 0.02391783 -3.04386724 -0.08226668 0 0 Z " fill="#F0F9F2" transform="translate(55,46)"/>
<path d="M0 0 C0.9295345 2.78860349 0.99247512 5.16300041 0.875 8.0625 C0.57725144 11.8538136 0.57725144 11.8538136 2.375 13.5625 C3.179375 14.2740625 3.179375 14.2740625 4 15 C4.74386068 17.30988315 5.42190703 19.64315944 6 22 C5.34 22.33 4.68 22.66 4 23 C-0.0098111 16.26924566 -2.01205197 10.87954752 -1 3 C-0.67 2.01 -0.34 1.02 0 0 Z " fill="#D4F7D7" transform="translate(43,51)"/>
<path d="M0 0 C3.33333333 3.33333333 6.66666667 6.66666667 10 10 C7 11 7 11 4 11 C3.87625 10.360625 3.7525 9.72125 3.625 9.0625 C3.41875 8.381875 3.2125 7.70125 3 7 C2.34 6.67 1.68 6.34 1 6 C1 5.34 1 4.68 1 4 C0.34 4 -0.32 4 -1 4 C-0.67 2.68 -0.34 1.36 0 0 Z " fill="#DBF7E4" transform="translate(60,73)"/>
<path d="M0 0 C7.92 0.66 15.84 1.32 24 2 C24 2.33 24 2.66 24 3 C20.37515001 3.08681476 16.75056557 3.14032721 13.125 3.1875 C11.57619141 3.22520508 11.57619141 3.22520508 9.99609375 3.26367188 C9.00996094 3.27333984 8.02382812 3.28300781 7.0078125 3.29296875 C5.64100342 3.31653442 5.64100342 3.31653442 4.24658203 3.34057617 C3.50520996 3.22818604 2.76383789 3.1157959 2 3 C1.34 2.01 0.68 1.02 0 0 Z " fill="#DCDCDC" transform="translate(56,133)"/>
<path d="M0 0 C0.66 0 1.32 0 2 0 C2 1.32 2 2.64 2 4 C6.455 3.505 6.455 3.505 11 3 C7.30827405 6.53790403 3.90609405 6.59115883 -1 7 C-0.67 4.69 -0.34 2.38 0 0 Z " fill="#D2F1D3" transform="translate(25,116)"/>
<path d="M0 0 C0.99 0.33 1.98 0.66 3 1 C2.52949219 1.53109375 2.05898438 2.0621875 1.57421875 2.609375 C0.95160156 3.31578125 0.32898437 4.0221875 -0.3125 4.75 C-1.23482422 5.79414062 -1.23482422 5.79414062 -2.17578125 6.859375 C-3.87314734 8.85114506 -5.45477809 10.88898915 -7 13 C-7 11.35 -7 9.7 -7 8 C-6.34 8 -5.68 8 -5 8 C-5.33 7.01 -5.66 6.02 -6 5 C-5.01 5 -4.02 5 -3 5 C-2.814375 4.0409375 -2.814375 4.0409375 -2.625 3.0625 C-2.41875 2.381875 -2.2125 1.70125 -2 1 C-1.34 0.67 -0.68 0.34 0 0 Z " fill="#E0F8DF" transform="translate(35,35)"/>
<path d="M0 0 C2.31 0 4.62 0 7 0 C7 0.99 7 1.98 7 3 C0.5 6 0.5 6 -4 6 C-4 5.34 -4 4.68 -4 4 C-1.36 3.34 1.28 2.68 4 2 C2.35 2 0.7 2 -1 2 C-0.67 1.34 -0.34 0.68 0 0 Z " fill="#EBEBEB" transform="translate(28,130)"/>
<path d="M0 0 C0.99 0.33 1.98 0.66 3 1 C1.59794495 3.80411009 -0.26727293 4.53830878 -3 6 C-5.3125 6.6875 -5.3125 6.6875 -7 7 C-7 7.66 -7 8.32 -7 9 C-8.32 9 -9.64 9 -11 9 C-10.67 8.01 -10.34 7.02 -10 6 C-6.71694623 4.41927041 -3.45463072 3.15154357 0 2 C0 1.34 0 0.68 0 0 Z " fill="#EFEFEF" transform="translate(109,125)"/>
<path d="M0 0 C5.28 1.65 10.56 3.3 16 5 C16 5.33 16 5.66 16 6 C12.37 6 8.74 6 5 6 C5 5.01 5 4.02 5 3 C3.35 2.67 1.7 2.34 0 2 C0 1.34 0 0.68 0 0 Z " fill="#DCF9DE" transform="translate(48,118)"/>
<path d="M0 0 C3.48247874 1.16082625 3.88819244 1.90932476 5.75 4.9375 C6.19859375 5.64777344 6.6471875 6.35804687 7.109375 7.08984375 C7.40328125 7.72019531 7.6971875 8.35054687 8 9 C7.67 9.66 7.34 10.32 7 11 C6.01 10.34 5.02 9.68 4 9 C4 8.34 4 7.68 4 7 C2.68 6.67 1.36 6.34 0 6 C0 4.02 0 2.04 0 0 Z " fill="#6ECB78" transform="translate(112,39)"/>
<path d="M0 0 C0.66 0.66 1.32 1.32 2 2 C1.58862454 7.1421933 0.30864128 12.02716314 -1 17 C-1.33 17 -1.66 17 -2 17 C-2.02689216 15.52093108 -2.04634621 14.04172517 -2.0625 12.5625 C-2.07410156 11.73878906 -2.08570312 10.91507813 -2.09765625 10.06640625 C-2 8 -2 8 -1 7 C-0.63239269 4.67182036 -0.29758419 2.3381615 0 0 Z " fill="#CBF4D0" transform="translate(29,99)"/>
<path d="M0 0 C0.33 0.99 0.66 1.98 1 3 C-0.85505895 6.7101179 -3.36113331 9.81516089 -6 13 C-5.4574852 8.44287564 -4.3106498 4.97431766 -2 1 C-1.34 0.67 -0.68 0.34 0 0 Z " fill="#5CBF6A" transform="translate(31,45)"/>
<path d="M0 0 C2.31 0 4.62 0 7 0 C7.33 1.32 7.66 2.64 8 4 C7.01 4.33 6.02 4.66 5 5 C4.34 4.67 3.68 4.34 3 4 C3 3.34 3 2.68 3 2 C1.68 2.33 0.36 2.66 -1 3 C-0.67 2.01 -0.34 1.02 0 0 Z " fill="#37BF48" transform="translate(64,72)"/>
<path d="M0 0 C0.66 0.33 1.32 0.66 2 1 C1.49172849 5.37113496 0.54826592 8.38995662 -2 12 C-2.33 12 -2.66 12 -3 12 C-3 10.02 -3 8.04 -3 6 C-2.34 6 -1.68 6 -1 6 C-0.67 4.02 -0.34 2.04 0 0 Z " fill="#3FB254" transform="translate(121,85)"/>
<path d="M0 0 C3 1 3 1 4.25 3.25 C5.07700926 6.28236729 4.85394079 8.01120724 4 11 C2.10786631 8.61426621 0.97608217 6.92824652 0 4 C0.66 4 1.32 4 2 4 C1.34 2.68 0.68 1.36 0 0 Z " fill="#5EC86D" transform="translate(57,41)"/>
<path d="M0 0 C0.90105469 0.19464844 1.80210938 0.38929688 2.73046875 0.58984375 C3.41753906 0.74582031 4.10460938 0.90179688 4.8125 1.0625 C3.8225 2.5475 3.8225 2.5475 2.8125 4.0625 C-1.05398272 3.02152388 -4.68211443 2.02551592 -8.1875 0.0625 C-4.80475734 -1.06508089 -3.41971777 -0.75500262 0 0 Z " fill="#E6E6E6" transform="translate(54.1875,130.9375)"/>
<path d="M0 0 C0.66 0 1.32 0 2 0 C2.042721 1.66611905 2.04063832 3.33382885 2 5 C1.67 5.33 1.34 5.66 1 6 C1.33 6.99 1.66 7.98 2 9 C1.01 9.33 0.02 9.66 -1 10 C-1.66 8.02 -2.32 6.04 -3 4 C-2.34 3.67 -1.68 3.34 -1 3 C-0.67 2.01 -0.34 1.02 0 0 Z " fill="#ECFBEC" transform="translate(124,48)"/>
<path d="M0 0 C-1.5 1.5625 -1.5 1.5625 -4 3 C-6.77437543 2.96823234 -9.25286467 2.50364148 -12 2 C-7.56043724 -0.29632557 -4.94312365 -1.20238143 0 0 Z " fill="#CDF4D9" transform="translate(48,117)"/>
<path d="M0 0 C-0.33 1.32 -0.66 2.64 -1 4 C-3.31 4 -5.62 4 -8 4 C-4.5 0 -4.5 0 0 0 Z " fill="#29AA3C" transform="translate(44,113)"/>
<path d="M0 0 C0 0.66 0 1.32 0 2 C0.66 2 1.32 2 2 2 C2 3.32 2 4.64 2 6 C0.125 5.75 0.125 5.75 -2 5 C-3.25 2.9375 -3.25 2.9375 -4 1 C-2 0 -2 0 0 0 Z " fill="#4CBB5A" transform="translate(67,74)"/>
<path d="M0 0 C1.83832664 3.10217621 2.47446226 5.39408679 2 9 C1.01 9.66 0.02 10.32 -1 11 C-1.02688151 9.35425434 -1.04634123 7.70838587 -1.0625 6.0625 C-1.07410156 5.14597656 -1.08570313 4.22945313 -1.09765625 3.28515625 C-1 1 -1 1 0 0 Z " fill="#3EC150" transform="translate(42,68)"/>
<path d="M0 0 C2.97 0.495 2.97 0.495 6 1 C6 1.66 6 2.32 6 3 C6.66 3 7.32 3 8 3 C8 4.65 8 6.3 8 8 C7.67 7.34 7.34 6.68 7 6 C6.01 5.67 5.02 5.34 4 5 C2.61423077 3.37667033 1.27358732 1.71275535 0 0 Z " fill="#E3F9E4" transform="translate(108,34)"/>
<path d="M0 0 C0.66 0.33 1.32 0.66 2 1 C0.9024777 3.99324263 0.32317108 4.84610901 -2.625 6.25 C-3.40875 6.4975 -4.1925 6.745 -5 7 C-3.75023244 3.34683329 -3.32901247 2.21934164 0 0 Z " fill="#F0EFF0" transform="translate(120,117)"/>
<path d="M0 0 C0.33 0 0.66 0 1 0 C2.125 5.75 2.125 5.75 1 8 C2.32 8 3.64 8 5 8 C5 8.66 5 9.32 5 10 C3.35 10.33 1.7 10.66 0 11 C0 7.37 0 3.74 0 0 Z " fill="#26AD39" transform="translate(30,107)"/>
<path d="M0 0 C2.14208427 3.2131264 2.59687808 5.21065397 3 9 C2.67 9.66 2.34 10.32 2 11 C1.34 11 0.68 11 0 11 C0 7.37 0 3.74 0 0 Z " fill="#61C66D" transform="translate(121,53)"/>
<path d="M0 0 C2.88437779 1.29299694 4.87219421 2.65941363 7 5 C4.36 5 1.72 5 -1 5 C-0.67 3.35 -0.34 1.7 0 0 Z " fill="#67CC74" transform="translate(105,33)"/>
<path d="M0 0 C0.33 0.66 0.66 1.32 1 2 C-0.25 5.0625 -0.25 5.0625 -2 8 C-2.99 8.33 -3.98 8.66 -5 9 C-4.6875 7.0625 -4.6875 7.0625 -4 5 C-3.01 4.67 -2.02 4.34 -1 4 C-0.26676204 1.98491642 -0.26676204 1.98491642 0 0 Z " fill="#DDDBDC" transform="translate(128,103)"/>
<path d="M0 0 C5.75 0.75 5.75 0.75 8 3 C4.66666667 3 1.33333333 3 -2 3 C-1.34 2.01 -0.68 1.02 0 0 Z " fill="#C3EFC7" transform="translate(88,80)"/>
<path d="M0 0 C2.97 0.33 5.94 0.66 9 1 C8.67 1.66 8.34 2.32 8 3 C5.03 3 2.06 3 -1 3 C-0.67 2.01 -0.34 1.02 0 0 Z " fill="#EDEDED" transform="translate(13,135)"/>
<path d="M0 0 C0 3 0 3 -1.5 4.6875 C-1.995 5.120625 -2.49 5.55375 -3 6 C-3.99 5.67 -4.98 5.34 -6 5 C-6 4.34 -6 3.68 -6 3 C-4.02 2.01 -2.04 1.02 0 0 Z " fill="#E0F8E3" transform="translate(103,115)"/>
<path d="M0 0 C3 0 3 0 4.4375 1.25 C4.953125 1.8275 5.46875 2.405 6 3 C6.721875 3.721875 7.44375 4.44375 8.1875 5.1875 C8.785625 5.785625 9.38375 6.38375 10 7 C6.4124787 5.66749209 3.1635377 4.169283 0 2 C0 1.34 0 0.68 0 0 Z " fill="#48B660" transform="translate(70,81)"/>
<path d="M0 0 C1.09658936 3.28976808 0.79953138 4.71303767 0 8 C-0.99 7.34 -1.98 6.68 -3 6 C-3 4.68 -3 3.36 -3 2 C-2.01 1.34 -1.02 0.68 0 0 Z " fill="#EFEFEE" transform="translate(15,118)"/>
<path d="M0 0 C2.64 0 5.28 0 8 0 C8.66 1.32 9.32 2.64 10 4 C6.7 3.01 3.4 2.02 0 1 C0 0.67 0 0.34 0 0 Z " fill="#C9F3D0" transform="translate(72,97)"/>
<path d="M0 0 C2 1 2 1 3.125 4.0625 C3.41375 5.031875 3.7025 6.00125 4 7 C3.34 7.66 2.68 8.32 2 9 C0.68 6.36 -0.64 3.72 -2 1 C-1.34 0.67 -0.68 0.34 0 0 Z " fill="#DFF5E6" transform="translate(118,42)"/>
<path d="M0 0 C2.475 0.495 2.475 0.495 5 1 C5.33 1.99 5.66 2.98 6 4 C6.66 4 7.32 4 8 4 C7.67 4.66 7.34 5.32 7 6 C5.83054208 5.19152271 4.66449539 4.37810888 3.5 3.5625 C2.8503125 3.11003906 2.200625 2.65757813 1.53125 2.19140625 C1.0259375 1.79824219 0.520625 1.40507812 0 1 C0 0.67 0 0.34 0 0 Z " fill="#CEF3D0" transform="translate(100,28)"/>
<path d="M0 0 C2.97 0.33 5.94 0.66 9 1 C9 1.99 9 2.98 9 4 C6.03 3.01 3.06 2.02 0 1 C0 0.67 0 0.34 0 0 Z " fill="#D5F8DC" transform="translate(91,24)"/>
<path d="M0 0 C0.33 0.99 0.66 1.98 1 3 C-1.97 2.67 -4.94 2.34 -8 2 C-4 0 -4 0 0 0 Z " fill="#CEF3D3" transform="translate(90,122)"/>
<path d="M0 0 C1.32 0.66 2.64 1.32 4 2 C2.02 2.99 2.02 2.99 0 4 C0 2.68 0 1.36 0 0 Z M-1 4 C-0.01 4.99 0.98 5.98 2 7 C1.01 6.67 0.02 6.34 -1 6 C-1 5.34 -1 4.68 -1 4 Z " fill="#3FB950" transform="translate(58,88)"/>
<path d="M0 0 C0.99 0.33 1.98 0.66 3 1 C1.70700306 3.88437779 0.34058637 5.87219421 -2 8 C-1.33333333 5.33333333 -0.66666667 2.66666667 0 0 Z " fill="#40B352" transform="translate(84,80)"/>
<path d="M0 0 C0 0.66 0 1.32 0 2 C-0.61875 2.0825 -1.2375 2.165 -1.875 2.25 C-4.18437567 2.81258459 -4.18437567 2.81258459 -5.25 5.0625 C-5.4975 5.701875 -5.745 6.34125 -6 7 C-6 5.35 -6 3.7 -6 2 C-2.25 0 -2.25 0 0 0 Z " fill="#62BF6D" transform="translate(50,43)"/>
</svg>
